<?xml version="1.0" standalone="no"?>
<!DOCTYPE svg PUBLIC "-//W3C//DTD SVG 1.1//EN" "http://www.w3.org/Graphics/SVG/1.1/DTD/svg11.dtd" >
<svg xmlns="http://www.w3.org/2000/svg">
<metadata>Generated by IcoMoon</metadata>
<defs>
<font id="icomoon" horiz-adv-x="1024">
<font-face units-per-em="1024" ascent="960" descent="-64" />
<missing-glyph horiz-adv-x="1024" />
<glyph unicode="&#x20;" horiz-adv-x="512" d="" />
<glyph unicode="&#xe600;" glyph-name="car" d="M136.782 689.912h-31.775c-6.951 0-12.66-5.71-12.66-12.66v-186.927c0-6.951 5.71-12.66 12.66-12.66h31.775c6.951 0 12.66 5.71 12.66 12.66v186.927c0 6.951-5.71 12.66-12.66 12.66zM918.993 689.912h-31.775c-6.951 0-12.66-5.71-12.66-12.66v-186.927c0-6.951 5.71-12.66 12.66-12.66h31.775c6.951 0 12.66 5.71 12.66 12.66v186.927c0.248 6.951-5.461 12.66-12.66 12.66zM849.486 434.719c0 12.909-9.433 23.335-21.845 25.072 0.248 2.482 0.496 5.213 0.496 7.944v410.096c0 25.569-11.419 46.173-25.321 46.173 0 0-153.91 35.747-289.699 35.747s-291.437-35.747-291.437-35.747c-14.15 0-25.321-20.604-25.321-46.173v-410.345c0-2.731 0.248-5.213 0.496-7.944-12.412-1.738-21.845-12.164-21.845-25.072v-106.248c-5.461-4.717-8.937-11.419-8.937-19.115v-117.17c0-7.696 3.475-14.646 8.937-19.363v-177.99c0-11.419 7.696-20.852 17.873-24.080v-8.937c0-14.15 11.419-25.321 25.321-25.321h39.471c8.688 0 16.384 4.468 20.852 10.923 4.468-6.703 12.164-10.923 20.852-10.923h39.471c14.15 0 25.569 11.419 25.569 25.321v7.696h295.408v-7.696c0-14.15 11.419-25.321 25.321-25.321h39.471c8.688 0 16.384 4.468 20.852 10.923 4.468-6.703 12.164-10.923 20.852-10.923h39.471c14.15 0 25.321 11.419 25.321 25.321v8.937c10.426 3.227 17.873 12.909 17.873 24.080v177.99c5.461 4.717 8.937 11.419 8.937 19.363v117.17c0 7.696-3.475 14.646-8.937 19.115l0.496 106.496zM512.124 720.943c112.702 0 301.615-11.916 301.615-11.916l-11.667-239.057-6.454-9.681h-567.234l-6.454 9.681-11.667 239.057c0.248-0.248 189.161 11.916 301.863 11.916zM673.73 306.378h-323.708l-46.421 15.143-2.731 19.611h422.012l-2.731-19.611-46.421-15.143zM712.952 290.738l-2.731-19.611-44.187-15.143h-307.821l-44.187 15.143-2.731 19.611h401.656zM208.772 2.777c-8.937 0-16.136 7.199-16.136 16.136s7.199 16.136 16.136 16.136 16.384-7.199 16.384-16.136c0-8.937-7.447-16.136-16.384-16.136zM319.24 68.561c0-14.15-11.419-25.321-25.321-25.321l-75.714 8.937c-13.902 0-25.321 11.419-25.321 25.321v19.859c0 14.15 11.419 25.321 25.321 25.321l75.714-17.873c14.15-4.22 25.321-11.419 25.321-25.569v-10.674zM679.688 69.554l-37.485-15.143h-260.406l-37.485 15.143-2.234 19.611h339.596l-1.986-19.611zM692.348 119.948l-40.215-15.143h-280.266l-40.215 15.143-2.482 19.611h365.909l-2.731-19.611zM696.32 170.341l-41.208-15.143h-286.472l-41.208 15.143-2.482 19.611h373.357l-1.986-19.611zM661.814 205.591h-299.629l-42.946 15.143-2.482 19.611h390.734l-2.482-19.611-43.194-15.143zM730.826 43.241c-13.902 0-25.321 11.419-25.321 25.321v10.923c0 14.15 11.171 21.101 25.321 25.569l75.714 17.873c14.15 0 25.569-11.419 25.569-25.321v-19.859c0-14.15-11.419-25.321-25.569-25.321l-75.714-9.185zM815.725 2.777c-8.937 0-16.384 7.199-16.384 16.136s7.199 16.136 16.384 16.136c8.937 0 16.136-7.199 16.136-16.136s-7.199-16.136-16.136-16.136z" />
<glyph unicode="&#xe601;" glyph-name="load" d="M1020.791 457.397h-236.748c-1.375 0-2.979 0-2.979 1.375l-229.415 193.432c-1.375 1.375-2.979 4.355-1.375 5.73 4.355 10.084 7.105 21.543 7.105 34.607 0 11.459-8.709 21.543-18.793 23.148-13.064 1.375-24.523-8.709-24.523-21.543v0c0-4.355-4.355-5.73-8.709-4.355l-7.105 5.73c-1.375 1.375-4.355 1.375-7.105 0l-40.337-34.607c-1.375-1.375-4.355-1.375-7.105 0-10.084 8.709-15.814 20.168-14.439 33.232 0 23.148 20.168 40.337 43.316 40.337h15.814c2.979 0 4.355 2.979 4.355 4.355v63.714c0 1.375 1.375 4.355 2.979 4.355 21.543 11.459 37.586 38.962 37.586 72.193 0 43.316-25.898 77.923-59.13 77.923s-59.13-34.607-59.13-77.923c0-30.252 13.064-57.755 33.232-69.214 1.375-1.375 2.979-2.979 2.979-4.355v-24.523c0-2.979-1.375-4.355-4.355-4.355-34.607-10.084-60.734-43.316-60.734-82.278 0-23.148 10.084-44.691 24.523-60.734 1.375-1.375 1.375-5.73 0-7.105l-192.516-167.764c-1.375-1.375-1.375-1.375-2.979-1.375h-210.85c-2.979 0-4.355-2.979-4.355-4.355v-509.708c0-2.979 2.979-4.355 4.355-4.355h1014.833c2.979 0 4.355 2.979 4.355 4.355v508.333c1.604 2.75-1.375 5.73-2.75 5.73zM184.953 28.591c0-15.814-13.064-28.877-28.877-28.877s-28.877 13.064-28.877 28.877v310.546c0 15.814 13.064 28.877 28.877 28.877s28.877-13.064 28.877-28.877v-310.546zM330.714 28.591c0-15.814-13.064-28.877-28.877-28.877s-28.877 13.064-28.877 28.877v310.546c0 15.814 13.064 28.877 28.877 28.877s28.877-13.064 28.877-28.877v-310.546zM477.851 28.591c0-15.814-13.064-28.877-28.877-28.877s-28.877 13.064-28.877 28.877v310.546c0 15.814 13.064 28.877 28.877 28.877s28.877-13.064 28.877-28.877v-310.546zM623.842 28.591c0-15.814-13.064-28.877-28.877-28.877s-28.877 13.064-28.877 28.877v310.546c0 15.814 13.064 28.877 28.877 28.877s28.877-13.064 28.877-28.877v-310.546zM701.765 457.397h-405.658c-4.355 0-7.105 5.73-2.979 8.709l163.18 141.407c1.375 1.375 2.979 1.375 4.355 1.375 4.355 0 8.709-1.375 11.459-1.375 15.814 0 31.857 4.355 43.316 11.459 1.375 1.375 4.355 1.375 5.73 0l181.973-154.471c5.73-1.375 2.979-7.105-1.375-7.105zM769.604 28.591c0-15.814-13.064-28.877-28.877-28.877s-28.877 13.064-28.877 28.877v310.546c0 15.814 13.064 28.877 28.877 28.877s28.877-13.064 28.877-28.877v-310.546zM916.741 28.591c0-15.814-13.064-28.877-28.877-28.877s-28.877 13.064-28.877 28.877v310.546c0 15.814 13.064 28.877 28.877 28.877s28.877-13.064 28.877-28.877v-310.546z" />
<glyph unicode="&#xe602;" glyph-name="money-bag" d="M375.2 746.24h272.16l24.8 35.040c20.32 30.24 43.040 59.2 62.24 90.4 8.96 14.56 26.56 38.88 19.68 57.6-4.8 13.12-17.12 17.44-30.88 20-9.44 1.76-58.4 14.080-78.56 9.76-17.44-3.36-33.6-12-50.72-17.44-23.52-8.16-49.92-15.36-76-13.6-22.56 1.28-48.16 3.84-69.6 11.52-17.28 6.4-34.4 15.68-53.12 18.72-15.84 3.040-74.72-5.12-86.24-7.2-83.2-14.080-22.56-76.8 41.44-169.76l24.8-35.040zM977.92 252.64c-69.92 159.52-196.16 333.28-328.48 416.8h-274.88c-132.32-83.68-258.56-257.28-328.48-416.8-69.92-159.68 14.080-316.64 174.080-316.64h583.68c160 0 244 156.96 174.080 316.64zM576.8 37.6v95.36h-286.4v95.68h445.6l-159.2-191.040zM736 316.96h-445.76l159.2 191.040v-95.36h286.56v-95.68z" />
<glyph unicode="&#xe603;" glyph-name="rulers" d="M989.92 960h-221.92c-18.88 0-34.080-15.2-34.080-34.080v-51.2h136.48v-34.080h-136.48v-34.24h68.32v-34.080h-68.32v-34.080h68.32v-34.24h-68.32v-34.080h136.48v-34.080h-136.48v-34.24h68.32v-34.080h-68.32v-34.080h68.32v-34.24h-68.32v-34.080h136.48v-34.080h-136.48v-34.24h68.32v-34.080h-68.32v-34.080h68.32v-34.24h-68.32v-34.080h136.48v-34.080h-136.48v-136.64h-34.080v136.48h-34.24v-68.32h-34.080v68.32h-34.080v-68.32h-34.24v68.32h-34.080v-136.48h-34.080v136.48h-34.24v-68.32h-34.080v68.32h-34.080v-68.32h-34.24v68.32h-34.080v-136.48h-34.080v136.48h-34.24v-68.32h-34.080v68.32h-34.080v-68.32h-34.24v68.32h-34.080v-136.48h-34.080v136.48h-51.2c-18.88 0-34.080-15.36-34.080-34.080v-221.92c0-18.88 15.2-34.080 34.080-34.080h955.68c18.88 0 34.080 15.2 34.080 34.080v955.84c0 18.88-15.2 34.080-34.080 34.080zM665.6 584.48c18.88 0 34.080 15.2 34.080 34.080v222.080c0 18.72-15.36 34.080-34.080 34.080h-546.080c-18.88 0-34.080-15.36-34.080-34.080v-546.24c0-18.88 15.36-34.080 34.080-34.080h221.92c18.88 0 34.080 15.2 34.080 34.080v51.2h-136.48v34.080h136.48v34.080h-68.32v34.24h68.32v34.080h-68.32v34.080h68.32v34.24h-136.48v34.080h136.48v136.48h34.080v-136.48h34.080v68.32h34.080v-68.32h34.24v68.32h34.080v-68.32h34.080v136.48h34.24v-136.48h51.2z" />
<glyph unicode="&#xe604;" glyph-name="ship" d="M572.952 885.333c0 13.524-10.857 24.381-24.381 24.381h-73.143c-13.524 0-24.381-10.857-24.381-24.381v-36.571h121.905v36.571zM451.048 824.381h121.905v-73.143h-121.905v73.143zM670.476 690.286c0 13.524-10.857 24.381-24.381 24.381h-268.19c-13.524 0-24.381-10.857-24.381-24.381v-60.952h316.952v60.952zM492.19 479.81l1.524 0.571c5.905 1.905 12.19 2.857 18.476 2.857s12.381-0.952 18.476-2.857l1.524-0.571 1.524-0.762 210.286-88v177.333c0 13.333-11.048 24.381-24.381 24.381h-414.857c-13.333 0-24.381-11.048-24.381-24.381v-177.333l211.81 88.762zM230.476 109.905c23.619 24.952 58.667 56.19 120 56.19 68.571 0 104.19-39.048 127.81-64.762 6.857-7.429 11.619-12.381 15.429-15.81v355.238l-343.048-143.81c-12.571-4-19.429-17.714-15.429-30.286l95.238-156.762zM996.381 129.524c-52.571 0-79.429-29.333-101.143-52.952-20.571-22.476-33.524-35.048-60.571-35.048s-40 12.762-60.571 35.048c-21.714 23.619-48.571 52.952-101.143 52.952-52.381 0-79.429-29.333-100.952-52.952-20.571-22.476-33.524-35.048-60.381-35.048s-39.81 12.762-60.381 35.048c-21.524 23.619-48.571 52.952-100.952 52.952s-79.429-29.333-100.952-52.952c-20.571-22.476-33.524-35.048-60.381-35.048s-39.81 12.762-60.381 35.048c-21.714 23.619-48.571 52.952-100.952 52.952-15.238 0-27.619-12.381-27.619-27.619s12.381-27.619 27.619-27.619c26.857 0 39.81-12.762 60.381-35.048 21.714-23.619 48.571-52.952 100.952-52.952s79.429 29.333 100.952 52.952c20.571 22.476 33.524 35.048 60.381 35.048s39.81-12.762 60.381-35.048c21.524-23.619 48.571-52.952 100.952-52.952s79.429 29.333 100.952 52.952c20.571 22.476 33.524 35.048 60.381 35.048 27.048 0 40-12.762 60.571-35.048 21.714-23.619 48.571-52.952 101.143-52.952s79.429 29.333 101.143 52.952c20.571 22.476 33.524 35.048 60.571 35.048 15.238 0 27.619 12.381 27.619 27.619s-12.381 27.619-27.619 27.619zM530.286 85.905c3.81 3.619 8.381 8.381 14.857 15.238 23.619 25.905 59.429 64.762 128 64.762 61.524 0 96.571-31.238 120.19-56.381l95.238 156.952c4.19 12.762-2.857 26.286-15.429 30.286l-343.048 143.81v-354.667z" />
<glyph unicode="&#xe605;" glyph-name="storehouse" d="M512 883.2l-512-204.8v-665.6h102.4v563.2h819.2v-563.2h102.4v665.6zM153.6 524.8h716.8v-51.2h-716.8v51.2zM153.6 422.4h716.8v-102.4h-716.8v102.4zM153.6 268.8h716.8v-102.4h-716.8v102.4z" />
<glyph unicode="&#xe606;" glyph-name="umbrella" d="M998.987 571.023c-11.060 27.565-25.013 54.28-41.688 79.973l-14.293 21.27c-23.822 32.33-51.557 61.767-83.377 88.141s-66.361 49.005-103.625 67.552c-33.351 16.335-67.892 29.097-103.625 38.115-37.264 9.359-75.039 15.144-113.154 16.845l-27.225 55.131-26.715-54.96c-38.455-1.531-76.4-7.147-113.664-16.845-35.733-9.018-70.275-21.78-103.625-38.115-37.775-18.547-72.487-41.008-104.136-67.552-31.309-26.544-58.874-55.981-82.696-88.141l-14.804-21.27c-16.675-25.694-30.628-52.408-41.688-79.973-11.060-27.906-19.228-56.662-24.332-86.099l48.835-16.335c4.764 6.976 10.55 13.272 17.186 19.057 6.296 5.785 13.442 10.72 21.44 14.633s15.995 7.147 24.332 9.188c9.188 1.872 18.207 2.722 27.395 2.722 11.060 0 21.78-1.702 32.16-4.935 10.38-2.893 19.908-7.317 28.586-13.102 8.678-6.126 16.505-13.272 23.141-21.27 6.296-7.997 11.23-16.845 14.804-26.715l50.536-0.51c3.573 9.869 8.678 18.717 15.484 26.715s14.633 14.804 23.822 20.759c8.678 5.445 18.037 9.869 27.906 13.102 10.72 2.893 21.61 4.424 32.67 4.424 10.72 0 21.27-1.702 31.479-4.935 9.869-2.893 19.228-7.147 27.906-12.592 7.997-5.445 15.144-11.571 21.44-18.547s11.571-14.463 15.484-22.801v-431.176c-0.851-3.914-2.212-7.147-4.084-9.188-2.382-2.893-5.615-4.935-9.529-5.955s-7.997-1.021-11.911 0c-3.914 1.021-7.317 3.063-10.039 5.955s-4.424 6.126-4.764 9.869c-0.851 2.552-0.851 5.445 0 8.678 1.191 3.914 2.042 6.976 2.382 8.678 0.851 3.233 1.021 5.955 0.51 8.167-1.191 3.233-3.573 6.296-7.147 9.188-3.063 3.233-7.657 5.445-13.612 6.466-5.615 1.021-10.89 0.681-15.484-1.021-4.254-2.042-7.997-4.935-11.23-8.678-2.893-3.573-4.764-7.657-5.955-11.911-2.382-8.338-2.893-16.675-1.702-25.013 0.851-6.466 2.552-12.932 5.275-19.057s6.466-11.741 11.23-16.845c4.764-5.105 10.38-9.359 16.675-13.102 5.955-3.573 12.251-6.296 19.057-8.167 7.147-1.872 14.293-2.722 21.44-2.722s14.293 1.021 21.44 3.233c6.806 1.872 13.102 4.764 19.057 8.678 5.955 3.573 11.060 7.997 15.484 13.102 4.764 4.764 8.508 9.869 11.23 15.314 3.233 5.445 5.105 12.421 5.955 21.27v434.749c3.914 8.338 8.848 15.995 14.804 22.801 6.296 6.976 13.442 12.932 21.44 18.037 8.678 5.445 17.866 9.699 27.395 12.592 10.38 3.233 21.099 4.935 32.16 4.935s21.78-1.531 32.16-4.424c10.38-3.233 19.908-7.657 28.586-13.102 9.188-5.785 17.016-12.762 23.822-20.759s11.911-16.845 15.484-26.715l50.026 0.51c3.573 9.869 8.678 18.717 15.484 26.715s14.463 15.144 23.141 21.27c8.678 5.785 18.037 10.209 27.906 13.102 10.72 3.233 21.61 4.935 32.67 4.935 9.188 0 18.037-0.851 26.715-2.722 8.678-2.212 17.016-5.275 25.013-9.188s15.144-8.848 21.44-14.633c6.806-5.785 12.421-12.081 17.186-19.057l48.835 16.335c-5.105 29.777-13.442 58.364-24.502 85.929z" />
<glyph unicode="&#xe607;" glyph-name="boxes" d="M996.803 785.341l-25.201-310.893-276.46-61.131-153.949 113.778v296.92l163.431-83.836 292.179 45.162zM692.647 328.234l-151.454 121.014v-79.844l70.363-60.632-316.881-75.602-118.019 140.476 19.212-273.466 113.279-164.429 298.417 88.327 1.248 97.809 75.353-75.103 258.745 76.6 21.957 269.973-272.218-65.123zM491.789 491.166l-330.355-35.93-132.242 93.318-2.246 359.298 365.037 52.148 81.341-147.961 18.464-320.873zM53.146 885.396c0.25-36.179 1.497-262.238 1.747-307.899 45.661 5.24 289.435 33.684 328.109 38.175-1.996 38.674-13.224 269.723-15.47 314.635-44.663-6.238-278.456-39.673-314.386-44.912z" />
<glyph unicode="&#xe900;" glyph-name="cross" d="M511.887 960c-3.385 0-7.108-1.918-10.493-5.19l-130.087-174.315c-6.77-6.77-3.836-13.652 6.318-13.652h83.942v-268.636h-268.636v83.942c0 10.041-6.882 12.975-13.652 6.318l-174.202-130.087c-6.77-6.77-6.77-14.216 0-20.985l174.202-130.2c6.77-6.77 13.652-3.836 13.652 6.318v83.942h268.636v-268.636h-83.942c-10.041 0-12.975-6.882-6.318-13.652l130.087-174.202c6.77-6.77 14.216-6.77 20.985 0l130.087 174.202c6.77 6.77 3.836 13.652-6.318 13.652h-83.942v268.636h268.636v-83.942c0-10.041 6.882-12.975 13.652-6.318l174.202 130.087c6.77 6.77 6.77 14.216 0 20.985l-174.202 130.087c-6.77 6.77-13.652 3.836-13.652-6.318v-83.942h-268.636v268.749h83.942c10.041 0 12.975 6.882 6.318 13.652l-130.087 174.202c-3.385 3.385-7.108 5.303-10.493 5.303v0z" />
<glyph unicode="&#xe901;" glyph-name="cog" d="M986.514 522.514l-101.371 16.914c-7.429 30.171-18.171 58.971-32.114 85.829l64.914 80.571c13.829 17.029 13.143 41.486-1.371 57.943l-40.343 45.371c-14.629 16.457-38.857 19.886-57.371 8.229l-86.743-54.514c-38.171 26.629-81.371 46.4-128 57.714l-16.914 101.943c-3.657 21.6-22.286 37.486-44.229 37.486h-60.8c-21.943 0-40.686-15.886-44.114-37.486l-17.143-101.943c-38.514-9.486-74.743-24.686-107.657-44.686l-82.514 58.857c-17.829 12.686-42.171 10.743-57.714-4.8l-42.971-42.971c-15.429-15.543-17.486-39.886-4.686-57.714l58.971-82.629c-19.886-32.686-34.971-68.686-44.343-106.857l-102.514-17.143c-21.6-3.657-37.486-22.286-37.486-44.229v-60.8c0-21.943 15.886-40.571 37.486-44.229l102.514-17.143c7.771-31.429 18.971-61.486 33.943-89.257l-64.686-80.114c-13.714-17.029-13.143-41.486 1.371-57.943l40.343-45.371c14.629-16.457 38.857-19.886 57.371-8.229l88 55.314c37.257-25.486 79.314-44.229 124.571-55.314l17.029-102.057c3.429-21.6 22.286-37.486 44.114-37.486h60.8c21.943 0 40.571 15.886 44.229 37.486l17.029 102.057c38.057 9.257 73.714 24.229 106.4 44l85.943-61.371c17.714-12.8 42.171-10.743 57.714 4.8l42.971 42.971c15.429 15.429 17.6 39.886 4.686 57.714l-61.143 85.829c19.886 32.8 35.086 68.8 44.457 107.2l101.486 16.914c21.6 3.543 37.486 22.286 37.486 44.229v60.8c-0.114 21.943-15.886 40.571-37.6 44.114zM513.6 256c-106.057 0-192 86.057-192 192 0 106.057 85.943 192 192 192 105.943 0 192-85.943 192-192s-85.943-192-192-192z" />
<glyph unicode="&#xe902;" glyph-name="nav-6-hover" d="M120.686 422.4c0-18.286-10.971-36.571 25.6-43.886v87.771c-36.571-7.314-25.6-25.6-25.6-43.886zM182.857 224.914c0 7.314 25.6 25.6 25.6 43.886s-25.6 36.571-25.6 43.886v-87.771zM998.4 729.6h-131.657l-21.943 182.857c0 7.314-3.657 14.629-10.971 18.286s-14.629 3.657-21.943 3.657l-789.943-204.8c0 0 0 0 0 0s-3.657 0-3.657-3.657c0 0-3.657 0-3.657-3.657 0 0-3.657-3.657-3.657-3.657s-3.657-3.657-3.657-3.657c0 0 0-3.657 0-3.657s0-3.657 0-3.657c0 0 0 0 0 0v-592.457c0-3.657 0-7.314 0-14.629 0-3.657 0-10.971 3.657-14.629 14.629-69.486 73.143-124.343 149.943-124.343h848.457c14.629 0 25.6 10.971 25.6 25.6v716.8c-10.971 14.629-21.943 25.6-36.571 25.6zM815.543 729.6l-3.657 14.629-14.629 131.657 18.286-146.286zM259.657 422.4c0-14.629-10.971-25.6-25.6-25.6s-25.6 10.971-25.6 25.6c0 18.286-25.6 36.571-25.6 43.886v-98.743c36.571-10.971 76.8-51.2 76.8-98.743s-40.229-87.771-76.8-98.743v-29.257c0-14.629-3.657-25.6-18.286-25.6s-18.286 10.971-18.286 25.6v29.257c-73.143 10.971-84.114 51.2-84.114 98.743 0 14.629 7.314 25.6 21.943 25.6s32.914-10.971 32.914-25.6c0-18.286-3.657-36.571 32.914-43.886v98.743c-73.143 10.971-76.8 51.2-76.8 98.743-3.657 47.543 0 87.771 73.143 98.743v29.257c0 14.629 3.657 25.6 18.286 25.6s18.286-10.971 18.286-25.6v-29.257c36.571-10.971 76.8-51.2 76.8-98.743zM153.6-1.829c-29.257 0-58.514 21.943-76.8 43.886 25.6-7.314 51.2-7.314 80.457-7.314 168.229 0 307.2 138.971 307.2 310.857 0 168.229-128 307.2-296.229 307.2-40.229 0-95.086-7.314-95.086-18.286v58.514h672.914c10.971-146.286 95.086-230.4 241.371-245.029v-182.857c-146.286-14.629-245.029-124.343-245.029-270.629h-588.8z" />
<glyph unicode="&#xe903;" glyph-name="nav-7-hover" d="M21.397 229.445c-6.113 0-12.227 3.057-15.284 6.113-9.17 9.17-9.17 21.397 0 30.567l140.609 143.666c9.17 9.17 21.397 9.17 30.567 0s9.17-21.397 0-30.567l-140.609-140.609c-3.057-6.113-9.17-9.17-15.284-9.17zM162.006 183.594c-6.113 0-12.227 3.057-15.284 6.113-9.17 9.17-9.17 21.397 0 30.567l94.758 94.758c9.17 9.17 21.397 9.17 30.567 0s9.17-21.397 0-30.567l-94.758-94.758c-3.057-3.057-9.17-6.113-15.284-6.113zM302.615 137.743c-6.113 0-12.227 3.057-15.284 6.113-9.17 9.17-9.17 21.397 0 30.567l45.851 45.851c9.17 9.17 21.397 9.17 30.567 0s9.17-21.397 0-30.567l-45.851-45.851c-3.057-6.113-9.17-6.113-15.284-6.113zM177.29 12.418c-6.113 0-12.227 3.057-15.284 6.113-9.17 9.17-9.17 21.397 0 30.567l45.851 45.851c9.17 9.17 21.397 9.17 30.567 0s9.17-21.397 0-30.567l-45.851-45.851c-3.057-3.057-9.17-6.113-15.284-6.113zM302.615-48.716c-6.113 0-12.227 3.057-15.284 6.113-9.17 9.17-9.17 21.397 0 30.567l140.609 140.609c9.17 9.17 21.397 9.17 30.567 0s9.17-21.397 0-30.567l-140.609-140.609c-3.057-6.113-9.17-6.113-15.284-6.113zM721.715 673.587l-62.681 62.69 47.558 47.551 62.681-62.69-47.558-47.551zM1017.887 626.818l-311.785 311.785c-9.17 9.17-21.397 9.17-30.567 0l-452.394-452.394c-9.17-9.17-9.17-21.397 0-30.567l311.785-311.785c3.057-3.057 9.17-6.113 15.284-6.113s12.227 3.057 15.284 6.113l452.394 452.394c3.057 3.057 6.113 9.17 6.113 15.284s0 12.227-6.113 15.284zM379.033 434.245c-9.17 0-18.34 6.113-21.397 15.284s0 21.397 9.17 24.454c12.227 9.17 76.418 76.418 137.552 137.552 9.17 9.17 21.397 9.17 30.567 0s9.17-21.397 0-30.567c-137.552-140.609-143.666-143.666-149.779-146.722 0 0-3.057 0-6.113 0zM553.266 470.925c-91.701-94.758-97.815-97.815-103.928-97.815-3.057 0-6.113 0-6.113 0-9.17 0-18.34 6.113-21.397 15.284s0 21.397 9.17 24.454c9.17 6.113 51.964 51.964 88.645 88.645 9.17 9.17 21.397 9.17 30.567 0s9.17-21.397 3.057-30.567zM816.143 703.236l-76.418-76.418c-3.057-3.057-9.17-6.113-15.284-6.113s-12.227 3.057-15.284 6.113l-94.758 94.758c-9.17 9.17-9.17 21.397 0 30.567l76.418 76.418c9.17 9.17 21.397 9.17 30.567 0l94.758-94.758c3.057-3.057 6.113-9.17 6.113-15.284s-3.057-9.17-6.113-15.284z" />
<glyph unicode="&#xe904;" glyph-name="nav-7" d="M550.209 137.743c-6.113 0-12.227 3.057-15.284 6.113l-311.785 311.785c-3.057 3.057-6.113 9.17-6.113 15.284s3.057 12.227 6.113 15.284l452.394 452.394c9.17 9.17 21.397 9.17 30.567 0l311.785-311.785c9.17-9.17 9.17-21.397 0-30.567l-449.337-452.394c-6.113-3.057-12.227-6.113-18.34-6.113zM272.048 470.925l281.218-281.218 421.827 421.827-281.218 281.218-421.827-421.827zM724.442 620.704c-6.113 0-12.227 3.057-15.284 6.113l-94.758 94.758c-3.057 3.057-6.113 9.17-6.113 15.284s3.057 12.227 6.113 15.284l76.418 76.418c9.17 9.17 21.397 9.17 30.567 0l94.758-94.758c9.17-9.17 9.17-21.397 0-30.567l-76.418-76.418c-6.113-3.057-12.227-6.113-15.284-6.113zM660.251 736.86l61.134-61.134 45.851 45.851-61.134 61.134-45.851-45.851zM379.033 434.245c-9.17 0-18.34 6.113-21.397 15.284s0 21.397 9.17 24.454c12.227 9.17 76.418 76.418 137.552 137.552 9.17 9.17 21.397 9.17 30.567 0s9.17-21.397 0-30.567c-137.552-140.609-143.666-143.666-149.779-146.722 0 0-3.057 0-6.113 0zM443.224 370.054c-9.17 0-18.34 6.113-21.397 15.284s0 21.397 9.17 24.454c9.17 6.113 51.964 51.964 88.645 88.645 9.17 9.17 21.397 9.17 30.567 0s9.17-21.397 0-30.567c-91.701-94.758-97.815-97.815-103.928-97.815 0 0 0 0-3.057 0zM21.397 229.445c-6.113 0-12.227 3.057-15.284 6.113-9.17 9.17-9.17 21.397 0 30.567l140.609 143.666c9.17 9.17 21.397 9.17 30.567 0s9.17-21.397 0-30.567l-140.609-140.609c-3.057-6.113-9.17-9.17-15.284-9.17zM162.006 183.594c-6.113 0-12.227 3.057-15.284 6.113-9.17 9.17-9.17 21.397 0 30.567l94.758 94.758c9.17 9.17 21.397 9.17 30.567 0s9.17-21.397 0-30.567l-94.758-94.758c-3.057-3.057-9.17-6.113-15.284-6.113zM302.615 137.743c-6.113 0-12.227 3.057-15.284 6.113-9.17 9.17-9.17 21.397 0 30.567l45.851 45.851c9.17 9.17 21.397 9.17 30.567 0s9.17-21.397 0-30.567l-45.851-45.851c-3.057-3.057-9.17-6.113-15.284-6.113zM177.29 12.418c-6.113 0-12.227 3.057-15.284 6.113-9.17 9.17-9.17 21.397 0 30.567l45.851 45.851c9.17 9.17 21.397 9.17 30.567 0s9.17-21.397 0-30.567l-45.851-45.851c-3.057-3.057-9.17-6.113-15.284-6.113zM302.615-48.716c-6.113 0-12.227 3.057-15.284 6.113-9.17 9.17-9.17 21.397 0 30.567l140.609 140.609c9.17 9.17 21.397 9.17 30.567 0s9.17-21.397 0-30.567l-140.609-140.609c-3.057-6.113-9.17-6.113-15.284-6.113z" />
<glyph unicode="&#xe905;" glyph-name="nav-6" d="M153.6 320c-54.857 0-102.4 47.543-102.4 102.4s47.543 102.4 102.4 102.4c54.857 0 102.4-47.543 102.4-102.4 0-14.629-10.971-25.6-25.6-25.6s-25.6 10.971-25.6 25.6c0 29.257-21.943 51.2-51.2 51.2s-51.2-21.943-51.2-51.2 21.943-51.2 51.2-51.2c14.629 0 25.6-10.971 25.6-25.6s-10.971-25.6-25.6-25.6zM153.6 166.4c-54.857 0-102.4 47.543-102.4 102.4 0 14.629 10.971 25.6 25.6 25.6s25.6-10.971 25.6-25.6c0-29.257 21.943-51.2 51.2-51.2s51.2 21.943 51.2 51.2c0 29.257-21.943 51.2-51.2 51.2-14.629 0-25.6 10.971-25.6 25.6s10.971 25.6 25.6 25.6c54.857 0 102.4-47.543 102.4-102.4s-47.543-102.4-102.4-102.4zM175.543 115.2c-14.629 0-36.571 10.971-36.571 25.6v409.6c0 14.629 21.943 25.6 36.571 25.6s36.571-10.971 36.571-25.6v-409.6c0-14.629-25.6-25.6-36.571-25.6zM998.4-38.4h-848.457c-84.114 0-149.943 65.829-149.943 149.943v592.457c0 14.629 10.971 25.6 25.6 25.6h972.8c14.629 0 25.6-10.971 25.6-25.6v-716.8c0-14.629-10.971-25.6-25.6-25.6zM51.2 678.4v-566.857c0-54.857 43.886-98.743 98.743-98.743h822.857v665.6h-921.6zM153.6 38.4c-47.543 0-95.086 10.971-138.971 32.914-10.971 7.314-18.286 21.943-10.971 32.914 7.314 14.629 21.943 18.286 32.914 14.629 36.571-18.286 76.8-29.257 117.029-29.257 142.629 0 256 113.371 256 256s-113.371 256-256 256c-40.229 0-80.457-10.971-117.029-29.257-10.971-7.314-29.257 0-32.914 10.971-7.314 10.971 0 29.257 10.971 32.914 43.886 21.943 91.429 32.914 138.971 32.914 168.229 0 307.2-138.971 307.2-307.2s-138.971-303.543-307.2-303.543zM998.4 448c-142.629 0-256 113.371-256 256 0 14.629 10.971 25.6 25.6 25.6s25.6-10.971 25.6-25.6c0-113.371 91.429-204.8 204.8-204.8 14.629 0 25.6-10.971 25.6-25.6s-10.971-25.6-25.6-25.6zM768-12.8c-14.629 0-25.6 10.971-25.6 25.6 0 142.629 113.371 256 256 256 14.629 0 25.6-10.971 25.6-25.6s-10.971-25.6-25.6-25.6c-113.371 0-204.8-91.429-204.8-204.8 0-14.629-10.971-25.6-25.6-25.6zM25.6 678.4c-10.971 0-21.943 7.314-25.6 18.286-3.657 14.629 3.657 29.257 18.286 32.914l793.6 204.8c7.314 0 14.629 0 21.943-3.657s10.971-10.971 10.971-18.286l25.6-204.8c0-14.629-7.314-25.6-21.943-29.257-14.629 0-25.6 7.314-29.257 21.943l-21.943 175.543-764.343-197.486c-3.657 0-3.657 0-7.314 0z" />
<glyph unicode="&#xe906;" glyph-name="nav-5-hover" d="M24.309-21.46c-3.039 0-6.077 0-9.116 3.039-9.116 3.039-15.193 12.154-15.193 21.27v549.982c0 12.154 12.154 24.309 24.309 24.309h334.243c12.154 0 24.309-12.154 24.309-24.309s-12.154-24.309-24.309-24.309h-309.935v-467.941l79.003 79.003c3.039 3.039 9.116 6.077 18.231 6.077h477.056v215.739c0 12.154 12.154 24.309 24.309 24.309s24.309-12.154 24.309-24.309v-240.047c0-12.154-12.154-24.309-24.309-24.309h-495.288l-112.427-109.389c-3.039-6.077-9.116-9.116-15.193-9.116zM978.421 914.421h-619.869c-12.154 0-3.039-15.193-3.039-27.347v-431.478c0-12.154-12.154-27.347 3.039-27.347h492.249l112.427-109.389c6.077-6.077 12.154-6.077 18.231-6.077 3.039 0 18.231 0 21.27 3.039 9.116 3.039 24.309 12.154 24.309 21.27v549.982c-3.039 12.154-33.424 27.347-48.617 27.347zM598.599 640.95h-121.543v30.386h121.543v-30.386zM720.142 640.95h-121.543v30.386h121.543v-30.386zM902.457 640.95h-151.929v30.386h151.929v-30.386z" />
<glyph unicode="&#xe907;" glyph-name="nav-5" d="M25.68-25.48c-3.21 0-6.42 0-9.63 3.21-9.63 0-16.050 9.63-16.050 19.26v561.755c0 12.84 9.63 25.68 25.68 25.68h340.263c12.84 0 25.68-9.63 25.68-25.68 0-12.84-9.63-25.68-25.68-25.68h-317.793v-478.295l80.251 80.251c3.21 3.21 9.63 6.42 16.050 6.42h487.925v218.282c0 12.84 9.63 25.68 25.68 25.68 12.84 0 25.68-9.63 25.68-25.68v-243.962c0-12.84-9.63-25.68-25.68-25.68h-500.765l-115.561-115.561c-3.21 0-9.63 0-16.050 0zM998.32 314.784c-6.42 0-12.84 3.21-16.050 6.42l-115.561 115.561h-500.765c-12.84 0-25.68 9.63-25.68 25.68v436.564c0 12.84 9.63 25.68 25.68 25.68h632.376c12.84 0 25.68-9.63 25.68-25.68v-561.755c0-9.63-6.42-19.26-16.050-22.47-3.21 0-6.42 0-9.63 0zM388.414 484.915h487.925c6.42 0 12.84-3.21 16.050-6.42l80.251-80.251v475.085h-584.226v-388.414zM924.489 655.047h-160.502v32.1h160.502v-32.1zM731.887 655.047h-96.301v32.1h96.301v-32.1zM603.486 655.047h-128.401v32.1h128.401v-32.1z" />
<glyph unicode="&#xe908;" glyph-name="nav-4-hover" d="M992 697.6c0 51.2-32 96-99.2 96h-604.8v89.6c0 12.8-6.4 22.4-16 25.6-22.4 32-73.6 51.2-124.8 51.2-80 0-147.2-44.8-147.2-99.2v-710.4c0-80 76.8-156.8 156.8-156.8h614.4c12.8-32 44.8-57.6 102.4-57.6 70.4 0 118.4 25.6 118.4 89.6v0 672zM688 169.6c9.6-9.6 9.6-25.6 0-35.2-3.2-3.2-9.6-6.4-16-6.4s-12.8 3.2-19.2 6.4l-35.2 35.2-35.2-35.2c-6.4-3.2-12.8-6.4-19.2-6.4s-12.8 3.2-19.2 6.4c-9.6 9.6-9.6 25.6 0 35.2l35.2 35.2-35.2 35.2c-9.6 9.6-9.6 25.6 0 35.2s25.6 9.6 35.2 0l35.2-35.2 35.2 35.2c9.6 9.6 25.6 9.6 35.2 0s9.6-25.6 0-35.2l-35.2-35.2 38.4-35.2zM640 348.8c-3.2-9.6-12.8-16-22.4-16-3.2 0-6.4 0-9.6 3.2-12.8 6.4-19.2 19.2-16 32 0 0 48 134.4-12.8 204.8-41.6 51.2-131.2 64-259.2 38.4-12.8-3.2-25.6 6.4-28.8 19.2s6.4 25.6 19.2 28.8c150.4 28.8 252.8 9.6 307.2-54.4 83.2-96 25.6-249.6 22.4-256zM121.6 668.8c-12.8 9.6-12.8 25.6 0 35.2 9.6 9.6 25.6 9.6 35.2 0l35.2-35.2 35.2 35.2c9.6 9.6 25.6 9.6 35.2 0s9.6-25.6 0-35.2l-35.2-35.2 35.2-35.2c9.6-9.6 9.6-25.6 0-35.2-6.4-6.4-12.8-6.4-19.2-6.4s-12.8 3.2-19.2 6.4l-32 35.2-35.2-35.2c-6.4-6.4-12.8-6.4-19.2-6.4s-12.8 3.2-19.2 6.4c-9.6 9.6-9.6 25.6 0 35.2l35.2 35.2-32 35.2zM144 908.8c54.4 0 80-25.6 80-48v-67.2h-57.6c0 0-3.2 9.6-3.2 9.6-3.2-3.2-6.4 3.2-9.6 3.2-51.2 0-92.8 28.8-92.8 51.2s32 51.2 83.2 51.2zM86.4 92.8l6.4-9.6c-3.2 3.2-3.2 6.4-6.4 9.6zM886.4-19.2c-41.6 0-83.2 22.4-83.2 51.2v595.2c32-9.6 51.2-16 80-16s48 6.4 80 16v-601.6c-3.2-28.8-38.4-44.8-76.8-44.8z" />
<glyph unicode="&#xe909;" glyph-name="nav-4" d="M1010.482 693.017c0 3.38 0 6.759 0 10.139 3.38 50.693-57.452 121.663-125.043 121.663h-594.799v33.795c0 6.759-3.38 13.518-6.759 16.898-10.139 50.693-64.211 84.488-135.182 84.488-77.729 0-135.182-43.934-135.182-101.386v-706.323c0-77.729 64.211-141.941 141.941-141.941h611.696c13.518-43.934 64.211-74.35 121.663-74.35 67.591 0 125.043 43.934 125.043 101.386 0 0 0 0 0 3.38 0 0 0 0 0 3.38v648.871zM148.7 909.307c50.693 0 87.868-23.657 87.868-47.314v-37.175h-64.211c-6.759 0-13.518-6.759-16.898-13.518 0 0-3.38 0-3.38 0-54.073 0-91.248 23.657-91.248 47.314s37.175 50.693 87.868 50.693zM60.832 152.29v631.974c23.657-13.518 54.073-23.657 87.868-23.657 3.38 0 10.139 0 13.518 0 3.38-3.38 6.759-3.38 10.139-3.38h713.083c37.175 0 70.97-33.795 74.35-57.452 0 0 0-3.38 0-3.38v-6.759c-6.759-16.898-33.795-30.416-70.97-30.416-43.934 0-70.97 20.277-70.97 37.175 0 13.518-10.139 23.657-23.657 23.657 0 0-3.38 0-3.38 0s-3.38 0-3.38 0c-13.518 0-23.657-10.139-23.657-23.657v-638.733h-608.317c-50.693 3.38-94.627 43.934-94.627 94.627zM885.439-16.686c-40.554 0-74.35 23.657-74.35 50.693 0 0 0 0 0 3.38 0 0 0 0 0 3.38v588.040c20.277-13.518 47.314-20.277 77.729-20.277 27.036 0 50.693 6.759 70.97 20.277v-591.419c0 0 0 0 0-3.38 0 0 0 0 0-3.38 3.38-23.657-30.416-47.314-74.35-47.314zM256.845 706.535c-10.139 10.139-27.036 10.139-33.795 0l-33.795-33.795-33.795 33.795c-10.139 10.139-27.036 10.139-33.795 0-10.139-10.139-10.139-27.036 0-33.795l33.795-33.795-33.795-33.795c-10.139-10.139-10.139-27.036 0-33.795 3.38-3.38 10.139-6.759 16.898-6.759s13.518 3.38 16.898 6.759l33.795 33.795 33.795-33.795c3.38-3.38 10.139-6.759 16.898-6.759s13.518 3.38 16.898 6.759c10.139 10.139 10.139 27.036 0 33.795l-33.795 33.795 33.795 33.795c10.139 6.759 10.139 23.657 0 33.795zM648.871 209.743l33.795 33.795c10.139 10.139 10.139 27.036 0 33.795-10.139 10.139-27.036 10.139-33.795 0l-33.795-33.795-33.795 33.795c-10.139 10.139-27.036 10.139-33.795 0-10.139-10.139-10.139-27.036 0-33.795l33.795-33.795-33.795-33.795c-10.139-10.139-10.139-27.036 0-33.795 3.38-3.38 10.139-6.759 16.898-6.759s13.518 3.38 16.898 6.759l33.795 33.795 33.795-33.795c3.38-3.38 10.139-6.759 16.898-6.759s13.518 3.38 16.898 6.759c10.139 10.139 10.139 27.036 0 33.795l-33.795 33.795zM588.040 368.581c-3.38-13.518 3.38-27.036 13.518-33.795 3.38 0 6.759 0 10.139 0 10.139 0 20.277 6.759 23.657 16.898 3.38 6.759 57.452 158.838-20.277 253.465-57.452 64.211-158.838 84.488-307.538 54.073-13.518-3.38-23.657-16.898-20.277-30.416s16.898-23.657 30.416-20.277c128.422 27.036 216.29 13.518 260.224-37.175 60.832-70.97 10.139-202.772 10.139-202.772z" />
<glyph unicode="&#xe90a;" glyph-name="nav-3-hover" d="M512 960c-283.031 0-512-228.969-512-512s228.969-512 512-512 512 228.969 512 512-228.969 512-512 512zM508.82 215.851c-12.72 0-31.801 9.54-31.801 22.261v203.528h-174.907c-12.72 0-22.261 19.081-22.261 31.801s9.54 31.801 22.261 31.801h174.907v152.646c0 12.72 19.081 22.261 31.801 22.261s31.801-9.54 31.801-22.261v-152.646h181.267c12.72 0 22.261-19.081 22.261-31.801s-9.54-31.801-22.261-31.801h-181.267v-203.528c0-12.72-19.081-22.261-31.801-22.261zM540.621-16.298v69.963c222.609 12.72 368.894 184.447 368.894 394.335 0 0 0 0 0 0 0 19.081-3.18 38.161-6.36 57.242-28.621 190.807-190.807 340.273-384.795 343.453-3.18 0-3.18 6.36-6.36 6.36v0 0c-219.429 0-394.335-184.447-394.335-403.876 0-3.18 0-9.54 0-15.901 0-9.54 0-19.081 0-28.621 0-6.36 3.18-15.901 3.18-22.261s0-12.72 3.18-19.081c3.18-3.18 3.18-9.54 6.36-19.081 0-3.18 3.18-9.54 3.18-12.72 3.18-9.54 6.36-15.901 9.54-25.441 0-3.18 3.18-6.36 3.18-9.54 3.18-9.54 6.36-15.901 12.72-25.441 0-3.18 3.18-6.36 3.18-9.54 3.18-9.54 9.54-15.901 12.72-25.441 3.18-3.18 3.18-6.36 3.18-6.36 6.36-6.36 9.54-15.901 15.901-22.261 3.18-3.18 3.18-6.36 6.36-6.36 6.36-6.36 12.72-12.72 19.081-22.261 3.18-3.18 3.18-3.18 6.36-6.36 6.36-6.36 12.72-12.72 19.081-19.081 3.18-3.18 6.36-3.18 6.36-6.36 6.36-6.36 12.72-12.72 22.261-15.901 3.18-3.18 6.36-3.18 9.54-6.36 6.36-6.36 12.72-9.54 22.261-12.72 3.18-3.18 6.36-3.18 9.54-6.36 6.36-3.18 12.72-6.36 22.261-12.72 3.18-3.18 9.54-3.18 12.72-6.36 6.36-3.18 12.72-6.36 22.261-9.54 6.36-3.18 9.54-3.18 15.901-6.36s12.72-3.18 19.081-6.36c6.36-3.18 12.72-3.18 15.901-3.18 6.36 0 12.72-3.18 19.081-3.18s12.72-3.18 19.081-3.18c6.36 0 6.36 0 12.72-3.18 3.18 0 3.18 0 3.18 0v-69.963c-222.609 12.72-435.677 216.248-435.677 464.298 0 257.59 209.888 464.298 467.478 464.298s470.658-206.708 470.658-464.298c0-248.050-184.447-451.578-438.857-464.298z" />
<glyph unicode="&#xe90b;" glyph-name="nav-3" d="M513.585-60.83c-282.155 0-510.415 228.26-510.415 510.415s228.26 510.415 510.415 510.415 510.415-228.26 510.415-510.415-228.26-510.415-510.415-510.415zM513.585 912.446c-256.793 0-466.031-206.068-466.031-462.861s209.238-462.861 462.861-462.861c256.793 0 462.861 209.238 462.861 462.861s-206.068 462.861-459.69 462.861zM529.437-64c-15.851 0-31.703 12.681-31.703 25.362v88.768c-221.92 12.681-374.093 183.876-374.093 396.285 0 221.92 174.365 399.455 393.115 399.455 221.92 0 402.625-177.536 402.625-399.455 0-15.851-12.681-25.362-25.362-25.362s-25.362 12.681-25.362 25.362c0 190.217-155.344 345.56-348.731 345.56-190.217 0-339.22-152.173-339.22-345.56s155.344-342.39 351.901-342.39c15.851 0 28.533-12.681 28.533-25.362v-117.3c0-15.851-15.851-25.362-31.703-25.362zM529.437 202.303c-15.851 0-31.703 12.681-31.703 25.362v434.328c0 15.851 15.851 25.362 31.703 25.362s31.703-12.681 31.703-25.362v-431.158c0-15.851-15.851-28.533-31.703-28.533zM745.015 411.542h-427.988c-15.851 0-25.362 15.851-25.362 31.703s12.681 31.703 25.362 31.703h431.158c15.851 0 25.362-15.851 25.362-31.703s-12.681-31.703-28.533-31.703z" />
<glyph unicode="&#xe90c;" glyph-name="nav-2-hover" d="M298.165-48.941h-189.741c-12.047 0-24.094 9.035-24.094 24.094v698.729c0 12.047 9.035 24.094 24.094 24.094s24.094-9.035 24.094-24.094v-677.647h141.553v843.294c0 27.106-21.082 48.188-48.188 48.188h-186.729c-12.047 0-24.094 9.035-24.094 24.094s9.035 24.094 24.094 24.094h186.729c51.2 0 93.365-42.165 93.365-93.365v-867.388c0-15.059-9.035-24.094-21.082-24.094zM1020.988 685.929l-141.553 240.941c-3.012 6.024-12.047 18.071-21.082 18.071h-490.918c-51.2 0-96.376-54.212-96.376-105.412v-867.388c0-12.047 12.047-21.082 27.106-21.082h701.741c12.047 0 24.094 9.035 24.094 21.082v701.741c0 6.024-3.012 9.035-3.012 12.047zM641.506 261.271l-117.459-141.553c-6.024-6.024-12.047-9.035-18.071-9.035-3.012 0-9.035 0-12.047 3.012l-69.271 48.188c-12.047 6.024-15.059 21.082-6.024 33.129 6.024 12.047 21.082 15.059 33.129 6.024l54.212-36.141 102.4 123.482c9.035 9.035 24.094 12.047 33.129 3.012 9.035-3.012 9.035-18.071 0-30.118zM641.506 520.282l-117.459-141.553c-6.024-6.024-12.047-9.035-18.071-9.035-3.012 0-9.035 0-12.047 3.012l-69.271 48.188c-12.047 6.024-15.059 21.082-6.024 33.129 6.024 12.047 21.082 15.059 33.129 6.024l54.212-36.141 102.4 123.482c9.035 9.035 24.094 12.047 33.129 3.012 9.035-6.024 9.035-21.082 0-30.118zM641.506 755.2l-117.459-141.553c-6.024-6.024-12.047-9.035-18.071-9.035-3.012 0-9.035 0-12.047 3.012l-69.271 48.188c-12.047 6.024-15.059 21.082-6.024 33.129 6.024 12.047 21.082 15.059 33.129 6.024l54.212-36.141 102.4 123.482c9.035 9.035 24.094 12.047 33.129 3.012 9.035-6.024 9.035-21.082 0-30.118zM15.059-33.882c-9.035 0-15.059 9.035-15.059 15.059v692.706c0 9.035 6.024 15.059 15.059 15.059s15.059-6.024 15.059-15.059v-692.706c0-6.024-6.024-15.059-15.059-15.059z" />
<glyph unicode="&#xe90d;" glyph-name="nav-2" d="M1011.397-64h-730.978c-12.603 0-25.206 9.452-25.206 25.206v901.12c0 53.563 44.111 97.674 97.674 97.674h510.425c12.603 0 25.206-9.452 25.206-25.206 0-12.603-9.452-25.206-25.206-25.206h-510.425c-28.357 0-47.262-22.055-47.262-47.262v-875.914h680.566v705.772c0 12.603 9.452 25.206 25.206 25.206 12.603 0 25.206-9.452 25.206-25.206v-730.978c-3.151-12.603-12.603-25.206-25.206-25.206zM280.418-64h-195.348c-12.603 0-25.206 9.452-25.206 25.206v730.978c0 12.603 9.452 25.206 25.206 25.206 12.603 0 25.206-9.452 25.206-25.206v-705.772h144.935v875.914c0 28.357-22.055 47.262-47.262 47.262h-195.348c-12.603 3.151-25.206 12.603-25.206 25.206 0 15.754 12.603 25.206 25.206 25.206h195.348c53.563 0 97.674-44.111 97.674-97.674v-901.12c0-12.603-12.603-25.206-25.206-25.206zM497.822 619.717c-3.151 0-9.452 0-12.603 3.151l-72.468 47.262c-12.603 6.302-15.754 22.055-6.302 34.658 6.302 12.603 22.055 15.754 34.658 6.302l53.563-34.658 107.126 129.182c9.452 9.452 25.206 12.603 34.658 3.151s12.603-25.206 3.151-34.658l-122.88-144.935c-3.151-6.302-9.452-9.452-18.905-9.452zM497.822 377.108c-3.151 0-9.452 0-12.603 3.151l-72.468 47.262c-12.603 6.302-15.754 22.055-6.302 34.658 6.302 12.603 22.055 15.754 34.658 6.302l53.563-37.809 107.126 129.182c9.452 9.452 25.206 12.603 34.658 3.151s12.603-25.206 3.151-34.658l-122.88-144.935c-3.151-3.151-9.452-6.302-18.905-6.302zM497.822 109.292c-3.151 0-9.452 0-12.603 3.151l-72.468 47.262c-12.603 6.302-15.754 22.055-6.302 34.658 6.302 12.603 22.055 15.754 34.658 6.302l53.563-37.809 107.126 129.182c9.452 9.452 25.206 12.603 34.658 3.151s12.603-25.206 3.151-34.658l-122.88-144.935c-3.151-3.151-9.452-6.302-18.905-6.302zM6.302-64c-12.603 0-15.754 9.452-15.754 25.206v730.978c0 12.603 3.151 25.206 15.754 25.206s15.754-9.452 15.754-25.206v-730.978c0-12.603 0-25.206-15.754-25.206z" />
<glyph unicode="&#xe90e;" glyph-name="nav-1-hover" d="M883.953 838.693h-371.953c-16.23 0-26.939-10.708-26.939-26.939v-107.754h-53.877v56.554c0 43.169-34.97 78.139-78.139 78.139h-167.153c-43.169 0-78.139-34.97-78.139-78.139v-56.554h-80.816c-16.23 0-26.939-10.708-26.939-26.939v-592.816c0-16.23 10.708-26.939 26.939-26.939h970.123c16.23 0 26.939 10.708 26.939 26.939v614.4c0 78.139-64.753 140.047-140.047 140.047zM910.892 677.061h-107.754c-16.23 0-26.939 10.708-26.939 26.939s10.708 26.939 26.939 26.939h107.754c16.23 0 26.939-10.708 26.939-26.939s-10.876-26.939-26.939-26.939zM937.83 623.184c0-16.23-10.708-26.939-26.939-26.939h-107.754c-16.23 0-26.939 10.708-26.939 26.939s10.708 26.939 26.939 26.939h107.754c16.063 0 26.939-10.876 26.939-26.939zM129.339 407.508h377.307c16.23 0 26.939-10.708 26.939-26.939s-10.708-26.939-26.939-26.939h-377.307c-16.23 0-26.939 10.708-26.939 26.939s10.708 26.939 26.939 26.939zM102.4 542.369c0 16.23 10.708 26.939 26.939 26.939h377.307c16.23 0 26.939-10.708 26.939-26.939s-10.708-26.939-26.939-26.939h-377.307c-16.23 0-26.939 10.708-26.939 26.939zM129.339 245.877h377.307c16.23 0 26.939-10.708 26.939-26.939s-10.708-26.939-26.939-26.939h-377.307c-16.23 0-26.939 10.708-26.939 26.939s10.708 26.939 26.939 26.939zM161.631 760.554c0 13.553 10.708 24.261 24.261 24.261h167.153c13.553 0 24.261-10.708 24.261-24.261v-56.554h-215.676v56.554z" />
<glyph unicode="&#xe90f;" glyph-name="nav-1" d="M997.053 57.263h-970.105c-16.168 0-26.947 10.779-26.947 26.947v592.842c0 16.168 10.779 26.947 26.947 26.947h458.105v107.789c0 16.168 10.779 26.947 26.947 26.947h371.874c75.453 0 140.126-61.979 140.126-140.126v-614.4c0-16.168-10.779-26.947-26.947-26.947zM53.895 111.158h916.211v587.453c0 45.811-37.726 86.232-86.232 86.232h-344.926v-107.789c0-16.168-10.779-26.947-26.947-26.947h-458.105v-538.947zM506.611 515.368h-377.263c-16.168 0-26.947 10.779-26.947 26.947s10.779 26.947 26.947 26.947h377.263c16.168 0 26.947-10.779 26.947-26.947s-10.779-26.947-26.947-26.947zM506.611 353.684h-377.263c-16.168 0-26.947 10.779-26.947 26.947s10.779 26.947 26.947 26.947h377.263c16.168 0 26.947-10.779 26.947-26.947s-10.779-26.947-26.947-26.947zM506.611 192h-377.263c-16.168 0-26.947 10.779-26.947 26.947s10.779 26.947 26.947 26.947h377.263c16.168 0 26.947-10.779 26.947-26.947s-10.779-26.947-26.947-26.947zM910.821 596.211h-107.789c-16.168 0-26.947 10.779-26.947 26.947s10.779 26.947 26.947 26.947h107.789c16.168 0 26.947-10.779 26.947-26.947s-10.779-26.947-26.947-26.947zM910.821 677.053h-107.789c-16.168 0-26.947 10.779-26.947 26.947s10.779 26.947 26.947 26.947h107.789c16.168 0 26.947-10.779 26.947-26.947s-10.779-26.947-26.947-26.947zM404.211 650.105c-16.168 0-26.947 10.779-26.947 26.947v83.537c0 13.474-10.779 24.253-24.253 24.253h-167.074c-13.474 0-24.253-10.779-24.253-24.253v-83.537c0-16.168-10.779-26.947-26.947-26.947s-26.947 10.779-26.947 26.947v83.537c0 43.116 35.032 78.147 78.147 78.147h167.074c43.116 0 78.147-35.032 78.147-78.147v-83.537c0-16.168-10.779-26.947-26.947-26.947z" />
<glyph unicode="&#xe910;" glyph-name="pencil" d="M687.861 508.104l-189.217 189.217 189.217 189.217 189.217-189.217-189.217-189.217zM560.974 697.322l126.887-126.887 126.887 126.887-126.887 126.887-126.887-126.887zM62.33 71.791l37.843 227.061 351.722 349.496 31.165-31.165-342.817-340.591-24.487-151.374 151.374 24.487 340.591 342.817 31.165-31.165-349.496-351.722zM89.043 47.304h601.043v-44.522h-601.043v44.522zM422.957 136.348h601.043v-44.522h-601.043v44.522zM133.565 893.217h44.522v-289.391h-44.522v289.391zM0 759.652h311.652v-44.522h-311.652v44.522z" />
<glyph unicode="&#xe911;" glyph-name="edit" d="M157.578 303.852l224.941-218.375 433.254 446.3-224.941 218.29zM324.365 25.533l-224.941 218.375-94.99-307.908zM794.711 960l-145.64-149.904 224.941-218.375 145.64 149.989z" />
<glyph unicode="&#xe912;" glyph-name="delete" d="M71.627 879.678h308.556v80.322h263.634v-80.322c106.716 0 201.84 0 308.556 0v-121.518h-880.849l0.104 121.518zM152.156 706.717h734.593v-770.717h-734.593v770.717z" />
<glyph unicode="&#xe913;" glyph-name="print" d="M213.315 895.919h597.369v-170.631h-597.369v170.631zM0 679.916v-378.678h213.315v-301.373h597.369v301.373h213.315v378.678h-1024zM725.315 85.235h-426.631v298.685h426.738v-298.685zM896.054 469.289c-35.373 0-63.973 28.6-63.973 63.973s28.6 63.973 63.973 63.973c35.373 0 63.973-28.6 63.973-63.973s-28.6-63.973-63.973-63.973z" />
<glyph unicode="&#xe914;" glyph-name="admin-nav-7-hover" d="M307.2 243.2h-307.2v-307.2h640v51.2h-332.8zM972.8 243.2h-256v-307.2h307.2v640h-51.2zM51.2 652.8h256v307.2h-307.2v-640h51.2zM713.143 960h-329.143v-51.2h332.8v-256h307.2v307.2z" />
<glyph unicode="&#xe915;" glyph-name="admin-nav-7" d="M307.2 652.8h-307.2v307.2h307.2v-307.2zM51.2 704h204.8v204.8h-204.8v-204.8zM1024 652.8h-307.2v307.2h307.2v-307.2zM768 704h204.8v204.8h-204.8v-204.8zM307.2-64h-307.2v307.2h307.2v-307.2zM51.2-12.8h204.8v204.8h-204.8v-204.8zM1024-64h-307.2v307.2h307.2v-307.2zM768-12.8h204.8v204.8h-204.8v-204.8zM1024-64h-281.6v51.2h230.4v588.8h51.2zM640-64h-640v281.6h51.2v-230.4h588.8zM51.2 320h-51.2v640h281.6v-51.2h-230.4zM1024 678.4h-51.2v230.4h-588.8v51.2h640z" />
<glyph unicode="&#xe916;" glyph-name="admin-nav-5-hover" d="M131.1 371.82h49.606v-255.114h-49.606v255.114zM513.772 577.329h49.606v-460.623h-49.606v460.623zM846.837 219.46h49.606v-102.754h-49.606v102.754zM180.706 676.54v283.46h-49.606v-283.46c-49.606-10.63-106.298-63.779-106.298-124.014 0-70.865 56.692-127.557 127.557-127.557s131.1 56.692 131.1 127.557c0 60.235-49.606 109.841-102.754 124.014zM563.377 882.048v77.952h-49.606v-77.952c-49.606-10.63-106.298-63.779-106.298-124.014 0-70.865 56.692-127.557 127.557-127.557s131.1 56.692 131.1 127.557c0 60.235-49.606 109.841-102.754 124.014zM896.443 524.18v435.82h-49.606v-435.82c-49.606-10.63-106.298-63.779-106.298-124.014 0-70.865 56.692-127.557 127.557-127.557s131.1 56.692 131.1 127.557c0 60.235-49.606 109.841-102.754 124.014zM77.952 91.903h152.36v-152.36h-152.36v152.36zM464.166 91.903h152.36v-152.36h-152.36v152.36zM793.689 91.903h152.36v-152.36h-152.36v152.36z" />
<glyph unicode="&#xe917;" glyph-name="admin-nav-5" d="M151.948 424.877c-69.368 0-128.826 56.155-128.826 128.826 0 69.368 56.155 128.826 128.826 128.826s128.826-56.155 128.826-128.826c0-72.671-56.155-128.826-128.826-128.826zM151.948 629.677c-42.942 0-75.974-33.032-75.974-75.974s33.032-75.974 75.974-75.974 75.974 33.032 75.974 75.974c0 42.942-33.032 75.974-75.974 75.974zM538.426 629.677c-69.368 0-128.826 56.155-128.826 128.826 0 69.368 56.155 128.826 128.826 128.826 69.368 0 128.826-56.155 128.826-128.826 0-69.368-59.458-128.826-128.826-128.826zM538.426 834.477c-42.942 0-75.974-33.032-75.974-75.974s33.032-75.974 75.974-75.974c42.942 0 75.974 33.032 75.974 75.974s-33.032 75.974-75.974 75.974zM872.052 269.626c-69.368 0-128.826 56.155-128.826 128.826 0 69.368 56.155 128.826 128.826 128.826 69.368 0 128.826-56.155 128.826-128.826 0-69.368-59.458-128.826-128.826-128.826zM872.052 474.426c-42.942 0-75.974-33.032-75.974-75.974s33.032-75.974 75.974-75.974c42.942 0 75.974 33.032 75.974 75.974s-33.032 75.974-75.974 75.974zM115.613 365.419h33.032v-264.258h-33.032v264.258zM115.613 960h33.032v-297.29h-33.032v297.29zM512 596.645h33.032v-495.484h-33.032v495.484zM512 960h33.032v-99.097h-33.032v99.097zM842.323 233.29h33.032v-132.129h-33.032v132.129zM842.323 960h33.032v-429.419h-33.032v429.419zM204.8-64h-155.252v155.252h155.252v-155.252zM102.4-11.148h52.852v52.852h-52.852v-52.852zM587.974-64h-155.252v155.252h155.252v-155.252zM485.574-11.148h52.852v52.852h-52.852v-52.852zM921.6-64h-155.252v155.252h155.252v-155.252zM819.2-11.148h52.852v52.852h-52.852v-52.852z" />
<glyph unicode="&#xe918;" glyph-name="admin-nav-4-hover" d="M441.236 210.732v0l-4.163-4.163 4.163 2.081 6.244 4.163 12.488 12.488-4.163-2.081-14.569-12.488zM620.228 237.789v0 0zM564.033 250.276l-6.244 2.081-18.732 4.163h-2.081v4.163l4.163-4.163 8.325-2.081 14.569-4.163zM1021.919 518.764l-4.163 4.163v6.244h2.081v2.081h-4.163l-2.081-2.081h-6.244l-8.325 8.325h-4.163l-2.081 2.081v6.244h-2.081l-2.081 2.081h-10.407v2.081l-2.081 8.325h-2.081l-2.081-2.081h-4.163l-4.163 4.163-20.813 4.163-2.081 2.081v2.081h-14.569v2.081l-2.081 4.163h-12.488v-10.407l-4.163-4.163v2.081l-14.569 14.569h-2.081l-4.163 2.081h-2.081l-4.163 8.325-2.081 2.081v6.244l-2.081 2.081-4.163 8.325v6.244h-6.244l-2.081-2.081h-2.081l-8.325-2.081h-12.488l-8.325-4.163h-4.163l-6.244 8.325h-2.081v2.081h-12.488l-4.163-2.081v2.081h-2.081v2.081l-2.081 10.407 4.163 2.081v12.488h2.081v2.081h-62.439l-2.081 2.081v10.407h-4.163l-2.081-2.081-4.163-2.081h-22.894l-2.081-2.081-4.163 2.081 4.163 4.163v58.276l-2.081 2.081v2.081h-2.081v2.081h2.081l8.325 2.081h2.081l2.081 2.081v4.163l-8.325 8.325h-2.081v29.138h-2.081l-4.163 2.081v2.081l-33.301 12.488h-4.163l-4.163-2.081-4.163-4.163v10.407h-10.407v-2.081l-6.244-4.163h-8.325l-10.407 6.244h-2.081l-33.301-2.081h-2.081v-16.65l-4.163-4.163-8.325-4.163h-6.244v2.081h-20.813l-10.407 2.081h-4.163l-4.163-2.081v-4.163l-4.163 4.163h-10.407v-2.081h-2.081v-2.081h-27.057v-8.325h-2.081v-2.081h-2.081l-2.081 2.081v2.081l-14.569-45.789h-12.488l-2.081-2.081v-2.081h-6.244l-2.081-4.163v12.488l-2.081 2.081v4.163h-2.081v-2.081l-2.081-2.081h-8.325l-43.707-2.081v2.081h-6.244l-4.163-2.081v2.081h-2.081v-2.081l-2.081-2.081h-29.138l-2.081 4.163v-6.244l-2.081-2.081 2.081 4.163v4.163h-18.732l-6.244 2.081h-2.081l-2.081-2.081h-4.163v6.244h-6.244l-2.081 2.081v6.244h-6.244l-6.244-2.081h-4.163l-10.407 4.163h-27.057l-4.163 2.081h-6.244l-12.488 2.081h-31.22l-8.325 2.081h-6.244l-4.163-2.081h-29.138l-8.325 6.244v-8.325l-2.081-2.081-6.244-4.163-8.325-6.244h-6.244l-2.081 2.081h-10.407l2.081-4.163v-2.081l2.081-2.081v-2.081l4.163-6.244v-2.081l4.163-4.163v-8.325l8.325-4.163v-2.081h-4.163l-2.081-35.382v-2.081h2.081v-2.081h2.081v-14.569l-4.163-2.081v-4.163h-14.569v-2.081l-2.081-4.163h-2.081l-4.163-4.163-18.732-35.382-6.244-6.244-6.244-8.325-2.081-2.081v-2.081l-6.244-10.407v-2.081l-6.244-4.163v-22.894h2.081l2.081-2.081 2.081-20.813v-2.081h-10.407l-2.081 2.081v-4.163h-8.325v-31.22h-4.163l-16.65-8.325v-14.569h6.244v-2.081h2.081l2.081-4.163 6.244-6.244v-6.244h6.244l2.081-2.081v-2.081l16.65-16.65v2.081l2.081 2.081v6.244h4.163l14.569-4.163 2.081-2.081 4.163-2.081h12.488l12.488-2.081h10.407l2.081-2.081h2.081l4.163 2.081h16.65l2.081-2.081h2.081l12.488-10.407 2.081-2.081v-2.081h6.244l4.163 4.163 4.163 8.325 2.081 2.081 33.301 2.081h20.813v22.894h4.163l6.244 2.081h8.325v4.163h2.081l2.081-2.081h4.163l6.244-2.081h41.626l2.081 4.163h4.163l2.081 2.081h8.325l4.163-2.081 2.081-2.081v-2.081h6.244v-4.163h31.22v-2.081l2.081-2.081v4.163h2.081l4.163-2.081h8.325v-6.244l4.163-4.163v2.081h2.081l2.081 2.081h2.081v-2.081h4.163l16.65-31.22v-18.732h2.081v-29.138h-2.081l2.081-2.081v-2.081h2.081v-2.081h35.382v-12.488h2.081l2.081-2.081v-2.081h-8.325l-2.081-2.081v4.163h-4.163v-35.382h-20.813l-2.081-2.081v8.325l-4.163-2.081h-2.081l-14.569-4.163v-10.407l2.081-2.081v-12.488l-2.081-2.081v-6.244l-10.407-8.325v-4.163h-8.325v-6.244h-12.488l-2.081-2.081h2.081v-2.081l2.081-4.163v-2.081h6.244l4.163-2.081 6.244-2.081h4.163v2.081l2.081 2.081h6.244l8.325-2.081 2.081-2.081v6.244l2.081 2.081h-2.081v8.325-12.488h2.081v-10.407h2.081v2.081h37.463v8.325l2.081-2.081v2.081-4.163l4.163 2.081 2.081 2.081 6.244 8.325 6.244 6.244v4.163l4.163 6.244 2.081 2.081h2.081l2.081 2.081v35.382l2.081 2.081h2.081l2.081 2.081h16.65l2.081 2.081v2.081h-2.081v2.081l37.463 8.325v-2.081h10.407l4.163-2.081h4.163v16.65l2.081 2.081h-6.244v4.163l2.081 2.081v4.163l2.081 16.65h-2.081l2.081-2.081v-6.244h2.081l6.244-12.488h4.163v-4.163h-2.081v-8.325h2.081l4.163-2.081h4.163l6.244 4.163-4.163-2.081 10.407-24.976v-2.081h-27.057l-2.081 2.081h-12.488v2.081l-2.081 2.081v-2.081l6.244-6.244 8.325-2.081h4.163l4.163 2.081-2.081-2.081h-6.244l-2.081-4.163h2.081l4.163-4.163h6.244l2.081-2.081h4.163l10.407-2.081h18.732v2.081l2.081-2.081h24.976v4.163-6.244h4.163v2.081l2.081-2.081h12.488v2.081l2.081-2.081v-2.081l4.163-22.894v-2.081l-4.163-4.163h-2.081l-4.163-2.081h-4.163l-16.65-8.325-2.081-2.081-6.244-4.163-22.894-18.732v-2.081l2.081-4.163h6.244l2.081 2.081h12.488l4.163-2.081 2.081-2.081h8.325l2.081-2.081 4.163-2.081v-31.22h-2.081v-6.244h12.488l6.244-4.163 2.081-2.081 4.163-2.081h6.244l6.244 2.081h4.163v2.081l2.081 6.244 4.163 4.163h8.325l4.163 2.081h39.545l2.081 2.081v4.163h2.081v2.081l2.081-2.081v2.081l2.081 2.081h8.325l8.325-4.163 2.081-2.081v-2.081h8.325v2.081h2.081l2.081-2.081h12.488l-2.081 2.081v14.569h4.163v4.163h2.081v2.081l24.976 16.65h-10.407v-2.081l-2.081-2.081h-4.163l-14.569 4.163v-2.081l-2.081-2.081-8.325-4.163-10.407-2.081h-2.081l-8.325 4.163-16.65 24.976-4.163 8.325-2.081 8.325-2.081 10.407v4.163h6.244l4.163 4.163 2.081 4.163 2.081 2.081v-6.244l-4.163-4.163 6.244 12.488-2.081-2.081-6.244-2.081h-2.081l-2.081-4.163h6.244v2.081l2.081 6.244 4.163 8.325h2.081l2.081 2.081 6.244 2.081 6.244 6.244h2.081l2.081 2.081 4.163 2.081h18.732v4.163l4.163 4.163h16.65l2.081-2.081v20.813h2.081l2.081 2.081h2.081l2.081 2.081 6.244 2.081 2.081 2.081h4.163v-2.081l6.244 8.325 2.081 4.163h10.407l6.244 2.081h8.325v-2.081h2.081l2.081 4.163v10.407h-2.081l2.081 2.081v16.65h2.081l12.488 2.081 2.081 2.081h2.081v24.976l2.081 2.081h10.407l2.081-2.081h99.902v4.163h2.081v2.081h2.081v6.244l2.081 4.163 2.081 2.081v4.163h-2.081l-4.163 2.081 4.163 2.081v2.081l-2.081 4.163v2.081h-8.325v2.081l2.081 10.407 6.244-2.081h2.081l2.081 2.081v4.163l2.081 2.081h-2.081l-4.163 2.081v6.244h-4.163l4.163 2.081h4.163v4.163h2.081l4.163 4.163v62.439h8.325z" />
<glyph unicode="&#xe919;" glyph-name="admin-nav-4" d="M1022.031 524.8c0 1.969 0 3.938 0 5.908v1.969c0 13.785-9.846 25.6-21.662 27.569h-3.938c-1.969 0-3.938 0-5.908 0s-3.938 0-3.938 0l-1.969 1.969c-3.938 3.938-7.877 5.908-13.785 7.877 0 0-1.969 0-3.938 1.969 0 1.969-1.969 1.969-1.969 1.969v0c-5.908 5.908-11.815 7.877-19.692 7.877-1.969 0-3.938 0-5.908 0-5.908 3.938-11.815 7.877-19.692 7.877h-1.969c-5.908 5.908-11.815 7.877-19.692 7.877h-5.908c-1.969 0-1.969 0-3.938 0-1.969 3.938-3.938 9.846-7.877 11.815l-1.969 1.969c-1.969 1.969-1.969 1.969-3.938 3.938s-1.969 1.969-3.938 3.938v0c-5.908 5.908-11.815 7.877-19.692 7.877-1.969 0-3.938 0-3.938 0h-5.908c-3.938 0-7.877-1.969-11.815-5.908 0 0 0 0 0 0h-3.938c-1.969 0-3.938 0-5.908 0h-3.938c-1.969 0-3.938-1.969-5.908-1.969h-1.969c0 0 0 0-1.969 0-1.969 3.938-5.908 5.908-9.846 7.877h-1.969c-3.938 1.969-5.908 1.969-9.846 1.969h-7.877c0 3.938-1.969 9.846-3.938 13.785 0 1.969 0 3.938 0 7.877v1.969c0 7.877-1.969 15.754-7.877 21.662v0c-1.969 1.969-5.908 3.938-7.877 5.908-3.938 9.846-13.785 15.754-23.631 15.754h-9.846c-1.969 0-5.908 0-7.877-1.969 0 0 0 0 0 0s0 0 0 1.969l1.969 1.969c3.938 3.938 3.938 9.846 3.938 15.754v3.938c0 7.877-1.969 13.785-7.877 19.692l-1.969 1.969-5.908 3.938-1.969 1.969c0 0-1.969 1.969-1.969 1.969v1.969c0 7.877-1.969 15.754-7.877 21.662v0c-1.969 1.969-3.938 3.938-5.908 3.938 0 0 0 0 0 0s-1.969 1.969-1.969 1.969v0c0 0 0 1.969-1.969 1.969-1.969 1.969-1.969 3.938-3.938 5.908v0c-5.908 5.908-11.815 7.877-19.692 7.877h-5.908c0 0-1.969 0-1.969 0-1.969 0-5.908 1.969-7.877 1.969v0c-1.969 0-5.908 0-7.877 0v0h-1.969c-1.969 0-3.938 0-5.908 0-7.877 0-13.785-1.969-19.692-7.877 0 0 0 0 0 0v0c-3.938 1.969-7.877 3.938-13.785 3.938-1.969 0-3.938 0-7.877 0h-1.969c-11.815 0-23.631-7.877-25.6-19.692v-1.969h-7.877l-7.877 1.969c-1.969 0-3.938 0-5.908 0h-3.938c-3.938 0-7.877-1.969-11.815-1.969h-11.815c-7.877 0-15.754-1.969-21.662-7.877v0c-3.938-3.938-7.877-9.846-7.877-17.723-1.969-1.969-1.969-1.969-1.969-3.938-1.969-1.969-3.938-1.969-3.938-3.938v0c-1.969-1.969-3.938-5.908-5.908-7.877s-3.938-3.938-3.938-7.877h-3.938c-1.969 0-3.938 0-5.908 0-3.938 1.969-5.908 1.969-9.846 1.969h-1.969c-1.969 0-3.938 0-3.938 0s-1.969 1.969-1.969 1.969v0 0c-1.969 1.969-3.938 3.938-7.877 5.908h-1.969c-3.938 1.969-7.877 1.969-11.815 1.969-5.908 0-13.785-1.969-19.692-5.908 0 0 0 0 0 0h-3.938c0 0 0 0-1.969 0-5.908 3.938-11.815 7.877-17.723 7.877-3.938 0-7.877 0-11.815-1.969-1.969 0-3.938 0-5.908 0-3.938 0-9.846-1.969-13.785-3.938 0 0 0 0 0 0 0 1.969-1.969 1.969-3.938 3.938v0c-5.908 5.908-11.815 7.877-19.692 7.877h-5.908c-1.969 0-3.938 0-3.938 0l-3.938 1.969c-3.938 1.969-7.877 1.969-11.815 1.969-3.938 1.969-7.877 3.938-13.785 3.938h-3.938c-3.938 1.969-9.846 3.938-15.754 3.938h-21.662l-9.846 1.969c-1.969 0-3.938 0-3.938 0-1.969 0-3.938 0-5.908 0h-11.815l-3.938 1.969c-1.969 0-5.908 1.969-7.877 1.969h-5.908c-3.938 0-5.908 0-7.877-1.969h-1.969c-1.969 0-3.938-1.969-3.938-1.969h-1.969c-1.969 0-3.938 0-5.908 0 0 0-1.969 0-1.969 0h-13.785c-7.877 0-13.785-3.938-19.692-7.877v0c-1.969-1.969-1.969-1.969-3.938-3.938l-1.969-1.969c0-1.969-1.969-1.969-1.969-3.938-1.969 0-1.969 0-3.938 0s-3.938 0-5.908 0h-3.938c-5.908 0-11.815-3.938-15.754-7.877l-5.908-3.938c-5.908-3.938-7.877-11.815-7.877-19.692 0-3.938 0-9.846 1.969-13.785 0 0 0-1.969 0-1.969 0-1.969-1.969-5.908-1.969-7.877v-1.969c0-7.877 3.938-15.754 9.846-21.662v0c1.969-1.969 1.969-3.938 5.908-7.877v-1.969c1.969-1.969 3.938-3.938 3.938-7.877 0-1.969 0-1.969 0-3.938v-1.969c0-3.938 0-5.908 1.969-9.846-3.938-1.969-5.908-3.938-7.877-5.908l-1.969-1.969c-1.969-1.969-3.938-3.938-3.938-5.908 0 0 0 0-1.969-1.969v0l-1.969-1.969c-1.969-1.969-3.938-3.938-5.908-5.908l-11.815-13.785c0 0 0-1.969-1.969-1.969v0l-1.969-1.969c-1.969-1.969-1.969-1.969-3.938-3.938l-3.938-5.908c-3.938-3.938-5.908-5.908-5.908-9.846 0 0 0 0-1.969-1.969v0c-3.938-1.969-5.908-5.908-5.908-7.877-3.938-3.938-5.908-7.877-7.877-11.815v-1.969c-1.969-5.908-1.969-9.846 0-15.754v0c0-3.938 0-7.877 1.969-9.846v0c-3.938-3.938-5.908-7.877-5.908-11.815-5.908-5.908-7.877-7.877-7.877-11.815 0 0 0-1.969-1.969-1.969-1.969-3.938-3.938-5.908-3.938-9.846-1.969-1.969-3.938-3.938-3.938-3.938-1.969-1.969-5.908-5.908-5.908-7.877v-1.969c-1.969-5.908-3.938-9.846-3.938-13.785v-1.969c0 0 0-1.969 0-1.969s0-1.969 0-1.969v-5.908c0-9.846 5.908-19.692 13.785-23.631 0 0 1.969-1.969 1.969-1.969l1.969-1.969c1.969-3.938 5.908-5.908 9.846-7.877v0c3.938-5.908 7.877-11.815 15.754-13.785 0-1.969 1.969-1.969 1.969-3.938l1.969-1.969c5.908-5.908 11.815-7.877 19.692-7.877 5.908 0 11.815 1.969 17.723 5.908 3.938-1.969 7.877-1.969 11.815-1.969 1.969 0 3.938 0 5.908 0 3.938-1.969 9.846-3.938 13.785-3.938 1.969 0 3.938 0 3.938 0 1.969-5.908 3.938-5.908 5.908-5.908s5.908-1.969 7.877-1.969c1.969 0 5.908 0 7.877 1.969 0 0 1.969-1.969 3.938-1.969 1.969-1.969 1.969-3.938 3.938-3.938v0c5.908-5.908 11.815-7.877 19.692-7.877 1.969 0 1.969 0 3.938 0h5.908c3.938 0 7.877 1.969 11.815 3.938l1.969 1.969c1.969 1.969 3.938 1.969 3.938 3.938l1.969 1.969c1.969 1.969 1.969 1.969 3.938 3.938l13.785 1.969c1.969 0 1.969 0 3.938 0v0c1.969 0 3.938 0 7.877 1.969 1.969 0 3.938 0 5.908 0v0h1.969c3.938 0 5.908 0 7.877 1.969h1.969c3.938 1.969 7.877 3.938 11.815 5.908v0c1.969 1.969 3.938 3.938 5.908 7.877 1.969 1.969 1.969 3.938 3.938 5.908v0 0c0 0 1.969 0 1.969 0s1.969 0 1.969 0c5.908 0 13.785 1.969 19.692 5.908 0 0 1.969 0 1.969 0 1.969 0 1.969 0 3.938 0h1.969c3.938 0 7.877 1.969 11.815 1.969h1.969c0 0 1.969 0 1.969 1.969 1.969-1.969 1.969-1.969 3.938-3.938s1.969-3.938 3.938-3.938v0c1.969-1.969 5.908-5.908 9.846-5.908 0 0 0 0 0 0s0-1.969 1.969-1.969v0c1.969-1.969 5.908-3.938 9.846-5.908 5.908-5.908 11.815-7.877 19.692-7.877 0 0 0 0 1.969 0l3.938-3.938c0 0 1.969-1.969 1.969-1.969-1.969-5.908-1.969-11.815 0-15.754v0c0-1.969 1.969-3.938 1.969-5.908 1.969-3.938 3.938-7.877 5.908-11.815v0c1.969-1.969 3.938-3.938 5.908-3.938 1.969-1.969 1.969-3.938 3.938-5.908v0c0-3.938 1.969-7.877 3.938-11.815v0c-3.938 0-7.877-1.969-9.846-3.938l-1.969-1.969c-3.938-1.969-7.877-3.938-11.815-5.908l3.938-1.969c-1.969-1.969-3.938-3.938-5.908-7.877v-1.969c-1.969-3.938-1.969-7.877-1.969-11.815v-3.938c0-1.969 0-3.938 0-5.908v0c0 0 0-1.969 0-1.969s-1.969-1.969-1.969-1.969v0c-3.938-3.938-5.908-7.877-7.877-13.785 0 0 0 0 0 0v0c0 0 0 0 0 0-1.969-1.969-3.938-3.938-5.908-5.908s-1.969-1.969-1.969-3.938v-1.969c0 0 0-1.969 0-1.969s0 0 0 0l-1.969-1.969c-7.877-5.908-11.815-13.785-11.815-23.631v-1.969c0-7.877 1.969-15.754 7.877-21.662v0c0 0 0 0 0 0v-1.969c1.969-1.969 3.938-5.908 5.908-7.877v0c3.938-3.938 7.877-5.908 11.815-7.877 1.969 0 3.938-1.969 3.938-1.969h3.938c0 0 1.969 0 1.969 0l5.908-1.969c1.969 0 5.908-1.969 7.877-1.969h3.938c5.908 0 13.785 1.969 19.692 5.908 1.969 0 1.969 1.969 3.938 1.969 5.908-5.908 11.815-9.846 19.692-9.846h1.969c7.877 0 15.754 1.969 21.662 7.877v0c3.938 3.938 5.908 9.846 7.877 15.754 0 1.969 1.969 5.908 1.969 7.877v3.938c0 1.969 0 1.969 0 3.938l11.815 11.815c5.908 3.938 7.877 9.846 9.846 17.723v0l5.908 5.908c1.969 1.969 5.908 5.908 5.908 9.846 0 0 1.969 1.969 1.969 1.969v0l1.969 3.938 1.969 1.969c0 0 1.969 1.969 1.969 3.938 0 0 0 0 0 0 1.969-1.969 3.938-5.908 5.908-7.877l3.938-3.938c3.938-3.938 5.908-5.908 11.815-5.908l7.877-1.969c1.969 0 1.969 0 3.938 0l15.754-3.938c3.938-1.969 7.877-1.969 11.815-1.969 0 0 0 0 1.969 0 0 0 0 0 0 0l5.908-1.969-3.938-5.908c-1.969-1.969-3.938-1.969-3.938-3.938l-1.969-1.969c-1.969-1.969-3.938-3.938-5.908-7.877v-1.969c-1.969-3.938-1.969-7.877-1.969-11.815s1.969-9.846 1.969-13.785l1.969-3.938c3.938-7.877 9.846-11.815 17.723-13.785 3.938-1.969 5.908-1.969 9.846-1.969h3.938c1.969 0 3.938 0 5.908 0l1.969-1.969c1.969-1.969 3.938-1.969 3.938-3.938v0c1.969-1.969 3.938-1.969 3.938-3.938-3.938-3.938-5.908-9.846-5.908-15.754 0-9.846 3.938-19.692 11.815-25.6l3.938-1.969c1.969-1.969 3.938-1.969 5.908-3.938 0 0 0 0 0 0v0c1.969-1.969 3.938-3.938 7.877-5.908l3.938-1.969c3.938-1.969 7.877-1.969 11.815-1.969h1.969c1.969 0 3.938 0 7.877 0s9.846 1.969 13.785 1.969h1.969c1.969 0 3.938 1.969 5.908 1.969h1.969c1.969 1.969 5.908 3.938 7.877 5.908v0 0c0 0 1.969 1.969 1.969 1.969 1.969 1.969 5.908 3.938 7.877 5.908v0c3.938 3.938 5.908 5.908 5.908 11.815v0 0c3.938-1.969 5.908-1.969 9.846-1.969h1.969c7.877 0 13.785 1.969 19.692 7.877l1.969 1.969c0 0 1.969 1.969 1.969 1.969 1.969 0 1.969 1.969 3.938 1.969 0 0 0 0 1.969 0 3.938-1.969 7.877-1.969 9.846-1.969s3.938 0 5.908 0v0 0c1.969 0 5.908 0 7.877 1.969 1.969 0 1.969 0 3.938 0s5.908 0 7.877 0v0c1.969 0 3.938 0 5.908 0h3.938c3.938 1.969 9.846 3.938 13.785 7.877v0c5.908 5.908 7.877 11.815 7.877 19.692 0 0 0 0 0 1.969 5.908 5.908 7.877 11.815 7.877 19.692v1.969c0 3.938 0 5.908-1.969 7.877v1.969c0 1.969-1.969 5.908-3.938 7.877v0c0 0 0 0 0 0 0 1.969-1.969 1.969-3.938 3.938v0c0 0 0 0-1.969 0-5.908 5.908-11.815 9.846-19.692 9.846-3.938 1.969-5.908 1.969-9.846 1.969s-7.877 0-11.815-1.969c0 0 0 0-1.969 0-3.938 1.969-7.877 3.938-11.815 3.938-5.908 0-11.815-1.969-15.754-3.938l-3.938 5.908-1.969 1.969c1.969 1.969 1.969 3.938 3.938 5.908 0 1.969 1.969 1.969 1.969 3.938v0c1.969 1.969 1.969 1.969 3.938 3.938v0 0c1.969 1.969 3.938 3.938 5.908 7.877 1.969 1.969 5.908 3.938 7.877 5.908l1.969 1.969c0 0 1.969 1.969 1.969 1.969s0 0 1.969 0 1.969-1.969 3.938-1.969c1.969 0 5.908-1.969 7.877-1.969 5.908 0 9.846 1.969 15.754 3.938 3.938-1.969 7.877-1.969 11.815-1.969 7.877 0 15.754 1.969 21.662 7.877v0c1.969 1.969 3.938 3.938 5.908 7.877v1.969c0 0 0 0 0 0 1.969 0 1.969 0 3.938 0 7.877 0 13.785 1.969 19.692 7.877l1.969 1.969c1.969 1.969 3.938 3.938 3.938 5.908 3.938-1.969 9.846-3.938 13.785-3.938s7.877 0 11.815 1.969h1.969c3.938 1.969 7.877 3.938 9.846 7.877l1.969 1.969c3.938 3.938 7.877 11.815 7.877 17.723 1.969 3.938 3.938 9.846 3.938 13.785v1.969c0 0 0 1.969 0 1.969s1.969 1.969 1.969 1.969c3.938 1.969 9.846 3.938 11.815 7.877v0c0 0 1.969 1.969 1.969 1.969 1.969 0 1.969 0 3.938 0s3.938 0 5.908 0c1.969 0 5.908 0 7.877 1.969 1.969 0 1.969 0 3.938 0v0c1.969 0 3.938 0 3.938 0h1.969c7.877 0 13.785 1.969 19.692 7.877v0c1.969 1.969 3.938 3.938 5.908 7.877v1.969c0 0 0 1.969 1.969 3.938 1.969 3.938 3.938 7.877 3.938 11.815 0 1.969 1.969 5.908 1.969 7.877 1.969 1.969 3.938 3.938 5.908 7.877v1.969c1.969 3.938 1.969 7.877 1.969 11.815v1.969c0 5.908-1.969 11.815-5.908 17.723 0 1.969 0 1.969-1.969 3.938 0 0 0 0 0 0v1.969c0 0 0 1.969 0 1.969 1.969 1.969 3.938 3.938 3.938 5.908v0c5.908 7.877 7.877 17.723 5.908 25.6 0 0 0 1.969 0 1.969 3.938 5.908 7.877 11.815 7.877 17.723 0 1.969 0 3.938 0 7.877v1.969c19.692 13.785 19.692 17.723 17.723 21.662zM996.431 511.015v-5.908l-3.938-3.938h-1.969v-5.908h-5.908l-9.846-7.877h-1.969v-3.938l1.969-1.969v-1.969l3.938-1.969h5.908v-3.938l-1.969-5.908h-1.969l-5.908 1.969v-1.969l-1.969-9.846v-1.969h7.877v-3.938l1.969-3.938v-1.969l-1.969-1.969-1.969-15.754 3.938-1.969h1.969v-3.938l-1.969-1.969-1.969-3.938v-5.908h-1.969v-3.938h-1.969v-7.877h-31.508l-1.969 1.969h-9.846l-1.969-1.969v-7.877h-1.969l-3.938-3.938-11.815-1.969h-1.969v-15.754l-21.662-19.692h3.938v-1.969l-1.969-1.969v-7.877l-1.969-3.938h-1.969v1.969h-9.846l-9.846-5.908h-9.846l-1.969-3.938-5.908-7.877v-1.969l-3.938-1.969v3.938h-3.938l-1.969-1.969-5.908-1.969h-1.969l-5.908-1.969h-1.969l-1.969-1.969h-1.969v-5.908l-1.969 1.969h-23.631l-7.877-7.877v-1.969h-19.692l-3.938-1.969-1.969-1.969h-1.969l-5.908-5.908-5.908-1.969-1.969-1.969h-1.969v-1.969 3.938c-1.969-1.969-5.908-3.938-7.877-5.908l-5.908-5.908h-3.938c-1.969-1.969-3.938-3.938-5.908-5.908v-15.754l1.969-9.846 1.969-7.877 3.938-7.877 15.754-23.631 7.877-5.908h-3.938l9.846 1.969 3.938 3.938v1.969l3.938-1.969h3.938l1.969 1.969v1.969h15.754v-1.969h5.908v-1.969h1.969v-3.938h-7.877v-17.723l1.969-1.969h-13.785l-1.969 1.969h-1.969v-1.969h-7.877v1.969l-1.969 1.969-7.877 3.938h-7.877l-1.969-1.969v-11.815h-1.969v-1.969l-1.969 1.969v-1.969h-1.969v-3.938l-1.969-1.969h-15.754l-3.938-1.969h-7.877l-19.692-13.785-1.969-1.969-1.969-5.908h-1.969v-1.969h-5.908l-5.908-1.969h-21.662l-3.938 1.969v-5.908l-1.969 1.969h-1.969l-5.908 3.938v1.969h5.908v11.815h1.969v13.785l-3.938 1.969-1.969 1.969h-13.785l-1.969 1.969-11.815 23.631h-11.815l-1.969-1.969h-7.877l-1.969 3.938v1.969l1.969 1.969 5.908 3.938h3.938v5.908h3.938v3.938l1.969 1.969 15.754 7.877h3.938l5.908 5.908h1.969l1.969 1.969c0 0 0 0 0 0 1.969 0 1.969 1.969 3.938 1.969 0 0 0 0 0 0 9.846 5.908-3.938 11.815-15.754 17.723-7.877 1.969-17.723 1.969-25.6 3.938 0 0 0 0-1.969 0v0h-9.846l-9.846 1.969v1.969c-7.877 1.969-15.754 3.938-23.631 7.877h-1.969c-3.938 1.969-5.908 5.908-7.877 11.815 0 0 0 0 0 0s-1.969 0-1.969 0c-5.908 3.938-11.815 5.908-17.723 7.877h-31.508l-1.969-1.969v-7.877l-1.969-1.969h-1.969v-1.969l-1.969-1.969-3.938-5.908v-3.938l-5.908-5.908-5.908-7.877-1.969-1.969-11.815-13.785c0 0 0 0 0 0v0 0c-3.938-3.938-5.908-5.908-9.846-9.846v0 0c-1.969-1.969-3.938-3.938-5.908-7.877v0l-1.969-1.969v-3.938h1.969v-21.662h-1.969v7.877l-1.969 1.969-7.877 1.969h-7.877c0 0-1.969 0-1.969 0v0 0-1.969h-1.969l-1.969-1.969h-1.969v-3.938h-5.908v-1.969h-1.969l-5.908 1.969-3.938 1.969h-5.908v1.969l-1.969 3.938v1.969h-1.969v1.969l1.969 1.969h11.815v11.815h-21.662v1.969h3.938v1.969h1.969v5.908l9.846 1.969v5.908l1.969 1.969v1.969c-1.969 1.969-1.969 3.938-1.969 7.877v0 33.477l3.938 3.938h1.969l3.938 1.969c0 0 0 0 0 0 5.908 1.969 11.815 3.938 17.723 5.908 3.938 5.908 7.877 9.846 9.846 15.754 0 1.969-1.969 5.908-3.938 9.846h-1.969v3.938c-3.938 5.908-5.908 9.846-7.877 13.785s-1.969 5.908-1.969 7.877v0l3.938 5.908v3.938h-1.969v1.969h-1.969v1.969h-1.969v15.754c-3.938 13.785-25.6 23.631-35.446 31.508v-1.969l-7.877 7.877c-1.969 0-1.969 1.969-3.938 1.969v0 0 0 0 1.969c-1.969 1.969-3.938 1.969-5.908 3.938v0h-1.969v1.969c0 0-1.969 0-1.969 1.969h-3.938v1.969c-1.969 1.969-3.938 3.938-5.908 5.908v0h-1.969v1.969c0 0-1.969 1.969-1.969 1.969-7.877 1.969-17.723 3.938-27.569 1.969l-1.969-1.969h-3.938l-9.846 1.969c-1.969 0-1.969 0-3.938 0v-1.969h-5.908c-1.969 0-5.908-1.969-7.877-1.969v-3.938h-1.969c0 0 0 0-1.969 0v0h-5.908c0 0 0 0-1.969 0v-1.969h-1.969l-7.877-1.969h-7.877v-11.815h-21.662l-25.6-1.969-1.969-1.969-3.938-7.877-1.969-1.969-15.754-17.723h-5.908v1.969l-1.969 1.969-3.938 1.969h-1.969v1.969l-1.969 1.969h-13.785l-1.969-1.969h-5.908l-3.938-1.969h-1.969l-1.969 1.969h-9.846l-5.908-1.969-1.969 1.969h-17.723l-3.938 1.969-3.938 3.938h-3.938l-5.908 13.785v-3.938l-1.969-1.969h-3.938l-1.969 1.969h-1.969v-1.969l-1.969 1.969v3.938l-1.969 1.969h-11.815v5.908l-5.908 5.908h-5.908l-3.938 5.908v3.938h-1.969v1.969h-5.908v13.785l3.938 1.969h5.908v13.785l1.969 1.969v5.908c1.969 7.877 5.908 13.785 11.815 19.692v0l5.908 15.754v19.692l5.908 3.938v1.969h1.969l1.969 5.908v3.938l1.969 1.969 5.908 7.877 1.969 1.969 5.908 11.815 1.969 1.969 11.815 15.754 3.938 3.938h1.969l1.969 3.938v1.969h13.785v5.908l3.938 1.969v13.785h-1.969v1.969h5.908l-1.969 1.969v3.938h5.908v1.969l-7.877 3.938v11.815l-5.908 25.6-1.969 1.969v1.969l-3.938 5.908h-3.938v3.938l-1.969 1.969v5.908l-1.969 3.938v11.815l1.969 1.969h9.846l7.877-1.969h3.938l7.877 5.908 5.908 3.938 1.969 1.969v7.877l1.969 1.969h27.569l3.938 1.969h3.938l7.877-1.969h31.508l11.815-1.969h5.908l3.938-1.969h13.785v-1.969h11.815l9.846-3.938h3.938l5.908 1.969h5.908v-5.908l1.969-1.969h3.938v-9.846h3.938l3.938 3.938h1.969l5.908-1.969h3.938v-3.938l-1.969-3.938h1.969l1.969 1.969v7.877l1.969-3.938h5.908l1.969 1.969v1.969h1.969v-1.969h1.969l3.938 1.969h5.908v-5.908h3.938v-1.969 5.908l1.969 1.969h7.877l1.969 1.969v1.969h3.938v-3.938l1.969-1.969v-7.877l1.969 3.938h1.969v1.969h63.015v-1.969h5.908v1.969h1.969l1.969 1.969h11.815l1.969-1.969v-5.908l1.969-1.969h13.785v-1.969h3.938v3.938h1.969v1.969-5.908h1.969v3.938h-1.969v1.969h1.969v3.938h3.938v1.969h7.877v7.877h1.969v1.969h1.969l1.969 1.969v3.938h-1.969v25.6h15.754l3.938-3.938v3.938l3.938 1.969h3.938l9.846-1.969h17.723v-3.938h5.908l7.877 3.938 3.938 3.938v11.815h1.969l3.938-1.969h1.969l9.846-5.908h7.877l5.908 3.938h1.969v1.969h31.508v-5.908l3.938 3.938 3.938 1.969h5.908l1.969-1.969v-1.969l3.938-1.969h1.969v-17.723h1.969l1.969-1.969h1.969l5.908-5.908v-3.938l-1.969-1.969h-3.938l-7.877-1.969h-1.969v-1.969h1.969v-3.938l1.969-1.969v-11.815l1.969-1.969v-3.938h1.969v-3.938l-3.938-3.938 3.938-1.969h1.969l1.969 1.969h15.754v-1.969h29.538l3.938 1.969 1.969 1.969h13.785v-9.846l1.969-1.969h7.877v-1.969h-1.969v-27.569h1.969v-9.846l1.969-1.969v-9.846l-3.938-1.969 1.969-9.846v-1.969h9.846v-3.938h1.969l1.969 1.969v1.969l15.754-3.938h11.815v-1.969h1.969l5.908-7.877 1.969 1.969h5.908v-11.815h11.815v1.969l7.877 3.938h11.815l7.877 1.969h1.969l1.969 1.969h5.908v-5.908l3.938-1.969 1.969-1.969v-7.877l1.969-1.969 3.938-7.877h1.969l3.938-1.969h1.969l5.908-5.908v-1.969l1.969 1.969h1.969l1.969 1.969v9.846h5.908l1.969-3.938v-1.969h15.754v-3.938l1.969-1.969 5.908-1.969 3.938-3.938h5.908l1.969 1.969h1.969l1.969-7.877v-1.969h9.846l1.969-1.969h3.938l1.969-1.969v-5.908l1.969-1.969h3.938l1.969-1.969h5.908l3.938 3.938h5.908v-1.969h-1.969v-5.908l1.969-1.969 31.508-15.754zM484.431 688.246v0zM738.462 274.708v-1.969l-5.908-5.908v-1.969h-1.969v1.969l3.938 5.908h1.969l1.969 1.969zM728.615 260.923l-3.938-3.938h-1.969v-1.969h-3.938l-1.969-1.969v1.969l1.969 1.969h1.969v1.969h5.908l1.969 1.969zM590.769 253.046l9.846-1.969h-1.969l-7.877 1.969zM610.462 253.046v-1.969h1.969l1.969-1.969-13.785 1.969 1.969 1.969h1.969l1.969-1.969 1.969 1.969h1.969zM620.308 229.415v0zM801.477 201.846v0zM803.446 201.846v0 0 0z" />
<glyph unicode="&#xe91a;" glyph-name="admin-nav-3-hover" d="M728.178 36.775c-110.527-58.514-234.057-68.267-354.337-32.508-117.029 35.759-214.552 117.029-273.067 227.556-52.013 100.775-68.267 214.552-42.26 325.079l-48.762 13.003c-29.257-120.279-13.003-250.311 45.511-357.587 65.016-120.279 172.292-211.302 302.324-250.311 48.762-16.254 100.775-22.756 152.787-22.756 81.27 0 162.54 19.505 237.308 58.514 29.257 16.254 55.263 32.508 81.27 55.263l-29.257 39.010c-19.505-22.756-45.511-39.010-71.517-55.263zM965.486 686.933c-133.283 250.311-442.108 344.584-692.419 214.552-81.27-45.511-152.787-110.527-198.298-188.546l-19.505-52.013-32.508-48.762c9.752 0 22.756-6.502 42.26-13.003 32.508-13.003 78.019-29.257 146.286-42.26 29.257-6.502 55.263-26.006 78.019-45.511 19.505-16.254 39.010-32.508 61.765-32.508 6.502 0 9.752 0 16.254 3.251 26.006 9.752 42.26 45.511 55.263 123.53 13.003 87.771-55.263 113.778-107.276 133.283-13.003 3.251-22.756 9.752-32.508 13.003 9.752 13.003 32.508 22.756 55.263 29.257l26.006 6.502-29.257 87.771c26.006 9.752 55.263 19.505 81.27 26.006 6.502-19.505 19.505-45.511 26.006-65.016 3.251-6.502 6.502-19.505 9.752-35.759 9.752-45.511 29.257-110.527 61.765-159.289 22.756-32.508 52.013-39.010 74.768-45.511 29.257-6.502 52.013-13.003 81.27-65.016 3.251-6.502 6.502-13.003 6.502-16.254-13.003 0-39.010 6.502-58.514 9.752-42.26 9.752-87.771 19.505-117.029 6.502-58.514-26.006-32.508-81.27-19.505-117.029 9.752-19.505 19.505-42.26 19.505-61.765 3.251-22.756-42.26-48.762-78.019-68.267-39.010-22.756-78.019-45.511-94.273-74.768-13.003-26.006-9.752-52.013 9.752-71.517 32.508-32.508 104.025-45.511 152.787-22.756 87.771 39.010 201.549 68.267 247.060 45.511 65.016-35.759 143.035-81.27 143.035-81.27l22.756 42.26 29.257 35.759c110.527 159.289 120.279 360.838 32.508 529.879z" />
<glyph unicode="&#xe91b;" glyph-name="admin-nav-3" d="M880.965 82.286c0 0-81.27 45.511-143.035 81.27-48.762 26.006-175.543-13.003-247.060-45.511-48.762-22.756-120.279-9.752-152.787 22.756-19.505 19.505-22.756 45.511-9.752 71.517 16.254 32.508 55.263 52.013 94.273 74.768 35.759 19.505 81.27 45.511 78.019 68.267-3.251 19.505-9.752 42.26-19.505 61.765-16.254 35.759-39.010 91.022 19.505 117.029 29.257 13.003 74.768 3.251 117.029-6.502 19.505-3.251 45.511-9.752 58.514-9.752 0 3.251-3.251 9.752-6.502 16.254-29.257 52.013-52.013 58.514-81.27 65.016-22.756 6.502-52.013 13.003-74.768 45.511-32.508 48.762-48.762 113.778-61.765 159.289-3.251 16.254-6.502 29.257-9.752 35.759-13.003 29.257-35.759 91.022-35.759 91.022l45.511 16.254c0 0 22.756-58.514 35.759-91.022 3.251-9.752 6.502-22.756 13.003-42.26 9.752-42.26 26.006-107.276 52.013-146.286 13.003-19.505 26.006-19.505 45.511-26.006 32.508-6.502 74.768-16.254 113.778-87.771 6.502-13.003 22.756-45.511 6.502-71.517-19.505-26.006-61.765-16.254-110.527-3.251-29.257 6.502-71.517 16.254-84.521 9.752-9.752-3.251-13.003-6.502 6.502-52.013 9.752-22.756 19.505-48.762 22.756-74.768 6.502-52.013-48.762-84.521-104.025-117.029-29.257-16.254-65.016-39.010-74.768-55.263-3.251-9.752-3.251-13.003 0-16.254 16.254-16.254 65.016-26.006 97.524-9.752s208.051 87.771 289.321 42.26c65.016-35.759 143.035-81.27 146.286-81.27l-26.006-42.26zM513.625-64c-185.295 0-360.838 100.775-455.111 273.067-58.514 110.527-74.768 237.308-45.511 357.587l48.762-13.003c-26.006-110.527-13.003-224.305 42.26-325.079 120.279-227.556 399.848-312.076 627.403-191.797 26.006 13.003 52.013 29.257 74.768 48.762l29.257-39.010c-26.006-19.505-52.013-39.010-81.27-55.263-78.019-35.759-159.289-55.263-240.559-55.263zM936.229 160.305l-39.010 26.006c97.524 143.035 107.276 325.079 26.006 477.867-58.514 110.527-156.038 188.546-273.067 227.556-117.029 35.759-243.81 26.006-354.337-32.508-74.768-39.010-136.533-97.524-178.794-169.041l-42.26 22.756c48.762 78.019 117.029 143.035 198.298 188.546 120.279 65.016 260.063 78.019 390.095 35.759 130.032-39.010 237.308-130.032 302.324-250.311 87.771-169.041 78.019-370.59-29.257-526.629zM347.835 478.883c-22.756 0-42.26 16.254-61.765 32.508-22.756 19.505-45.511 39.010-78.019 45.511-65.016 13.003-110.527 29.257-143.035 42.26-16.254 6.502-32.508 13.003-42.26 13.003l9.752 48.762c16.254-3.251 29.257-9.752 48.762-16.254 32.508-13.003 74.768-29.257 136.533-39.010 42.26-6.502 74.768-32.508 97.524-55.263 9.752-6.502 22.756-19.505 29.257-22.756 3.251 6.502 13.003 22.756 22.756 84.521 6.502 45.511-16.254 58.514-74.768 81.27-13.003 9.752-29.257 16.254-42.26 22.756-26.006 13.003-29.257 32.508-29.257 42.26 6.502 32.508 58.514 55.263 104.025 68.267l13.003-45.511c-22.756-6.502-45.511-16.254-58.514-26.006 9.752-3.251 22.756-9.752 32.508-13.003 48.762-19.505 120.279-45.511 107.276-133.283-13.003-81.27-26.006-113.778-55.263-123.53-6.502-3.251-9.752-6.502-16.254-6.502z" />
<glyph unicode="&#xe91c;" glyph-name="admin-nav-2-hover" d="M464.883 413.448c-53.399 0-94.233 40.834-94.233 94.233 0 12.564-9.423 25.129-25.129 25.129-12.564 0-25.129-9.423-25.129-25.129 0-78.528 62.822-141.35 141.35-141.35s141.35 62.822 141.35 141.35c0 12.564-9.423 25.129-25.129 25.129-12.564 0-25.129-9.423-25.129-25.129 6.282-53.399-34.552-94.233-87.951-94.233zM986.307 658.454h-191.607c-12.564 157.055-153.914 301.546-329.816 301.546-179.043 0-326.675-144.491-329.816-332.957v0 0 0-6.282c0-160.196 109.939-336.098 235.583-373.791v-94.233h-179.043c-59.681 0-109.939-28.27-128.785-84.81l-47.117-138.209 898.356 3.141-47.117 135.067c-18.847 56.54-69.104 84.81-128.785 84.81h-182.184v94.233c125.644 34.552 229.301 219.877 235.583 345.521h188.466c12.564 0 25.129 18.847 25.129 31.411s-6.282 34.552-18.847 34.552zM540.27 290.945h-12.564v-163.337h53.399c-9.423-31.411-59.681-94.233-116.221-94.233s-103.656 62.822-116.221 94.233h81.669v163.337h-28.27c-125.644 18.847-213.595 179.043-223.018 304.687h251.288v-65.963c0-12.564 18.847-25.129 31.411-25.129s31.411 9.423 31.411 25.129v65.963h251.288c-3.141-125.644-78.528-285.84-204.172-304.687z" />
<glyph unicode="&#xe91d;" glyph-name="admin-nav-2" d="M48.302-64l-45.082 16.101 38.642 115.925c19.321 57.962 70.843 96.604 132.025 96.604h183.547v77.283c-151.346 38.642-241.509 218.969-241.509 383.195 0 183.547 151.346 334.893 338.113 334.893s338.113-151.346 338.113-338.113c0-164.226-90.164-344.553-241.509-383.195v-77.283h183.547c61.182 0 112.704-38.642 132.025-96.604l38.642-115.925-45.082-16.101-38.642 115.925c-12.881 38.642-48.302 61.182-86.943 61.182h-231.849v167.447l19.321 3.22c138.465 22.541 222.189 193.208 222.189 338.113 0 161.006-128.805 289.811-289.811 289.811s-289.811-128.805-289.811-289.811c0-148.126 83.723-318.792 222.189-338.113l19.321-3.22v-167.447h-231.849c-38.642 0-74.063-25.761-86.943-61.182l-38.642-112.704zM998.239 605.786h-846.893c-12.881 0-25.761 22.541-25.761 32.201s9.66 32.201 25.761 32.201h846.893c12.881 0 25.761-22.541 25.761-32.201s-12.881-32.201-25.761-32.201zM454.038 354.616c-80.503 0-144.906 64.403-144.906 144.906 0 12.881 9.66 25.761 25.761 25.761 12.881 0 25.761-9.66 25.761-25.761 0-54.742 41.862-96.604 96.604-96.604s96.604 41.862 96.604 96.604c0 12.881 9.66 25.761 25.761 25.761 12.881 0 25.761-9.66 25.761-25.761-6.44-80.503-70.843-144.906-151.346-144.906zM466.918 499.522c-12.881 0-16.101 9.66-16.101 25.761v96.604c0 12.881 3.22 25.761 16.101 25.761s16.101-9.66 16.101-25.761v-96.604c0-12.881-3.22-25.761-16.101-25.761zM454.038-15.698c-93.384 0-170.667 41.862-170.667 170.667h48.302c0-96.604 54.742-122.365 122.365-122.365s122.365 25.761 122.365 122.365h48.302c-3.22-128.805-77.283-170.667-170.667-170.667z" />
</font>
</defs>
</svg>
