<?xml version="1.0" encoding="utf-8"?>
<!-- Generator: Adobe Illustrator 17.1.0, SVG Export Plug-In . SVG Version: 6.00 Build 0)  -->
<!DOCTYPE svg PUBLIC "-//W3C//DTD SVG 1.1//EN" "http://www.w3.org/Graphics/SVG/1.1/DTD/svg11.dtd">
<svg version="1.1" id="Layer_1" xmlns="http://www.w3.org/2000/svg" xmlns:xlink="http://www.w3.org/1999/xlink" x="0px" y="0px"
	 viewBox="0 0 147 29" enable-background="new 0 0 147 29" xml:space="preserve">
<g>
	<g>
		<g>
			<path fill="#141413" d="M37.7,5.7c4.9,0,7.3,3.2,7.3,6.6c0,3.3-2.1,6.1-5.7,6.4l7.4,8.7l-2.1,1.1l-9.2-11.1h-0.1v10.6l-2.2,0.3
				V5.7H37.7z M35.2,17.1h2.7c2.7,0,4.7-2.1,4.7-4.7c0-2.4-1.7-4.6-4.8-4.6h-2.6V17.1z"/>
		</g>
		<g>
			<path fill="#141413" d="M49.5,12.1c1.1-0.4,2.7-0.9,4.5-0.9c5.7,0,5.8,4.2,5.8,5.1v11.5l-1.9,0.4V26h-0.1c-1.1,1.8-3,2.3-4.7,2.3
				c-3.2,0-6-2.2-6-5.9c0-3.8,3.1-5.8,6-5.8c1.5,0,3.3,0.5,4.6,2h0.1v-2.5c0-1.8-1.6-3.1-3.9-3.1c-1.5,0-3.1,0.5-4.3,1l-0.9,0.4
				L49.5,12.1z M49.2,22.3c0,2,1.3,4.2,4.3,4.2c2.9,0,4.4-1.9,4.4-4c0-2-1.5-4.1-4.6-4.1C50.7,18.4,49.2,20.3,49.2,22.3z"/>
		</g>
		<g>
			<path fill="#141413" d="M63.9,7.7l2-1v5h4.4v1.8h-4.4v10.1c0,1.1,0.1,2.9,2.9,2.9c0.5,0,0.8-0.1,1.5-0.4V28
				c-0.6,0.2-1.3,0.3-2,0.3c-2.4,0-4.4-1.3-4.4-4.6V13.5h-2.2l0.5-1.8h1.7V7.7z"/>
		</g>
		<g>
			<path fill="#141413" d="M86.3,25.9c-1.6,1.4-3.7,2.4-6.3,2.4c-5.8,0-8.6-4.7-8.6-8.6c0-4.7,3.6-8.5,8.4-8.5
				c2.5,0,5.2,1.1,6.9,3.9l-12.5,7.5c1.1,2.4,3.5,3.7,5.7,3.7c2.3,0,4.8-1.3,6.4-2.9V25.9z M83.9,14.7c-0.9-0.9-2.2-1.6-4.1-1.6
				c-2.9,0-6.4,2.1-6.4,6.4c0,0.5,0.1,0.9,0.2,1.4L83.9,14.7z"/>
		</g>
		<g>
			<path fill="#141413" d="M101,20.9l3.9-3.9l1.5,1.5l-4.1,4.1l4,4.6l-1.8,1.2l-3.6-4.4l-1.2,1.2c-1.7,1.7-3,3.2-5.5,3.2
				c-3.2,0-5.6-2.4-5.6-5.6c0-3.1,2-4.6,3.5-6l1.6-1.5c-1.9-2.4-2.1-4.2-2.1-5.1c0-3,2.1-5,5-5c2.8,0,4.5,2.1,4.5,4.1
				c0,2.3-1.8,3.8-3.3,5.2l-1.1,1L101,20.9z M94.9,16.8l-1.4,1.3c-1.2,1.1-2.9,2.5-2.9,4.7c0,2.2,2,3.4,3.5,3.4
				c1.8,0,3.2-1.7,4.2-2.7l1.2-1.2L94.9,16.8z M95.6,13.7c1.3-1,3.1-2.6,3.1-4.5c0-1.6-1.6-2.1-2.5-2.1c-1.4,0-2.7,1.1-2.7,3.1
				c0,1.3,0.6,2.7,1.6,3.9L95.6,13.7z"/>
		</g>
		<g>
			<path fill="#141413" d="M126.3,9.8c-1.4-1.3-3.6-2.6-6.5-2.6c-4.9,0-9.3,3.9-9.3,9.7c0,4.6,3.5,9.4,9.5,9.4c2,0,4-0.6,5.9-2V18
				h-7.4l0.7-2.1h9v9.4c-3.2,2.7-6.4,3-8.3,3c-7.7,0-11.8-6-11.8-11.4c0-5.8,4.2-11.8,11.7-11.8c2.3,0,5.1,0.6,7.8,2.9L126.3,9.8z"
				/>
		</g>
		<g>
			<path fill="#141413" d="M138.9,11.3c4.7,0,8.5,3.8,8.5,8.5c0,4.7-3.8,8.5-8.5,8.5c-4.7,0-8.5-3.8-8.5-8.5
				C130.4,15.1,134.3,11.3,138.9,11.3z M138.9,26.5c3.6,0,6.4-3.1,6.4-6.7c0-3.7-2.9-6.7-6.4-6.7c-3.5,0-6.4,3-6.4,6.7
				C132.5,23.5,135.4,26.5,138.9,26.5z"/>
		</g>
	</g>
	<g>
		<g>
			<path fill="#141413" d="M26.4,28.7H2.1c-1.2,0-2.1-0.9-2.1-2.1V2.3c0-1.2,0.9-2.1,2.1-2.1h24.3c1.2,0,2.1,0.9,2.1,2.1v24.3
				C28.5,27.8,27.5,28.7,26.4,28.7z M2.1,0.9c-0.8,0-1.5,0.7-1.5,1.5v24.3c0,0.8,0.7,1.5,1.5,1.5h24.3c0.8,0,1.5-0.7,1.5-1.5V2.3
				c0-0.8-0.7-1.5-1.5-1.5H2.1z"/>
		</g>
		<g>
			<polygon fill="#141413" points="6.6,20.4 3.8,20.4 3.8,22 6.6,22 6.6,24.8 8.2,24.8 8.2,22 11.1,22 11.1,20.4 8.2,20.4 8.2,17.6 
				6.6,17.6 			"/>
		</g>
		<g>
			<polygon fill="#141413" points="10.6,9.4 8.6,7.4 10.6,5.4 9.4,4.3 7.5,6.2 5.4,4.3 4.3,5.4 6.3,7.4 4.3,9.4 5.4,10.5 7.5,8.5 
				9.4,10.5 			"/>
		</g>
		<g>
			<g>
				<rect x="17.2" y="6.6" fill="#141413" width="7.2" height="1.6"/>
			</g>
			<g>
				<rect x="20" y="9.4" fill="#141413" width="1.6" height="1.6"/>
			</g>
			<g>
				<rect x="20" y="3.8" fill="#141413" width="1.6" height="1.6"/>
			</g>
		</g>
		<g>
			<rect x="0.5" y="14.5" fill="#141413" width="11.5" height="0.7"/>
		</g>
		<g>
			<rect x="13.9" y="0.6" fill="#141413" width="0.7" height="12.3"/>
		</g>
		<g>
			<path fill="#141413" d="M22.6,14.9h-3h-0.1c-2.7,0-4.8,2.2-4.9,4.9v0.1v3V28h-0.9v-8.1c0-1.1,0.3-2.1,0.9-3
				c0.5-0.8,1.1-1.4,1.9-1.9c0.9-0.5,1.9-0.9,3-0.9h0h0h8.1v0.9H22.6z"/>
			<path fill="#141413" d="M15.3,28.6h-2.1v-8.8c0-1.2,0.3-2.3,0.9-3.3c0.5-0.9,1.3-1.6,2.1-2.1c1-0.6,2.2-0.9,3.3-0.9h8.8v2.1h-8.8
				c-2.3,0-4.2,1.9-4.3,4.3V28.6z"/>
		</g>
	</g>
	<g>
		<g>
			<path fill="#141413" d="M23.9,21.5c0.3-1,0.1-2.1-0.6-2.8c-1.1-1.1-2.8-1.1-3.8,0c-0.8,0.8-1,1.9-0.6,2.8c0.7,2,2.6,4,2.6,4
				S23.1,23.6,23.9,21.5L23.9,21.5z M21.9,21.4c-0.3,0.3-0.8,0.3-1.2,0c-0.3-0.3-0.3-0.8,0-1.2c0.3-0.3,0.8-0.3,1.2,0
				C22.2,20.6,22.2,21.1,21.9,21.4z"/>
		</g>
	</g>
</g>
</svg>
